<svg t="1569478356348" class="icon" viewBox="0 0 1024 1024" version="1.1" xmlns="http://www.w3.org/2000/svg" p-id="10726" data-spm-anchor-id="a313x.7781069.0.i23" width="48" height="48"><path d="M868.631273 775.410036l-68.310109-120.171055 0-251.159273c0-52.363636-19.027782-107.575855-53.564509-155.461818-35.141818-48.714473-84.48-86.8352-138.919564-107.333818-0.316509-0.121018-0.642327-0.232727-0.958836-0.335127-1.256727-0.400291-5.892655-1.880436-12.706909-3.844655l0-8.359564C594.171345 83.409455 557.307345 46.545455 511.990691 46.545455s-82.180655 36.864-82.180655 82.180655l0 7.763782c-6.3488 1.815273-10.370327 3.109236-10.835782 3.258182-0.242036 0.074473-0.474764 0.158255-0.7168 0.242036-55.268073 20.014545-105.453382 58.098036-141.302691 107.222109-35.197673 48.2304-54.569891 103.936-54.569891 156.867491l0 251.159273-73.094982 128.642327c-8.797091 15.332073-8.741236 34.415709 0.148945 49.822255 8.834327 15.304145 25.376582 24.808727 43.175564 24.808727l180.6336 0C383.599709 925.779782 441.865309 977.454545 511.990691 977.454545s128.390982-51.674764 138.742691-118.932945l180.596364 0c27.536291 0 49.933964-22.369745 49.933964-49.8688C881.263709 796.169309 876.804655 784.4864 868.631273 775.410036L868.631273 775.410036zM511.990691 89.451055c20.992 0 38.185891 16.551564 39.237818 37.282909-4.4032-0.837818-8.862255-1.591855-13.293382-2.243491-1.899055-0.269964-3.798109-0.288582-5.650618-0.065164-0.763345-0.111709-1.545309-0.232727-2.327273-0.344436-5.483055-0.828509-11.692218-1.759418-18.618182-1.759418-6.925964 0-13.125818 0.930909-18.608873 1.759418-0.670255 0.1024-1.3312 0.2048-1.982836 0.297891-1.917673-0.260655-3.8912-0.260655-5.864727 0.018618-4.040145 0.567855-8.0896 1.2288-12.0832 1.954909C474.037527 105.7792 491.138327 89.451055 511.990691 89.451055L511.990691 89.451055zM511.990691 934.548945c-46.3872 0-85.280582-32.572509-95.083055-76.036655l190.1568 0C597.271273 901.985745 558.377891 934.548945 511.990691 934.548945L511.990691 934.548945zM831.339055 815.616" p-id="10727" fill="#f5a21a" data-spm-anchor-id="a313x.7781069.0.i22" class="selected"></path></svg>