<svg t="1569466312041" class="icon" viewBox="0 0 1029 1024" version="1.1" xmlns="http://www.w3.org/2000/svg" p-id="5898" width="48" height="48"><path d="M318.577778 460.8h403.911111c28.444444 0 51.2 22.755556 51.2 51.2s-28.444444 51.2-56.888889 51.2h-398.222222c-28.444444 0-51.2-22.755556-51.2-51.2s22.755556-51.2 51.2-51.2zM517.688889 261.688889c28.444444 0 51.2 22.755556 51.2 51.2v403.911111c0 28.444444-22.755556 51.2-51.2 51.2s-51.2-22.755556-51.2-51.2V312.888889c0-28.444444 22.755556-51.2 51.2-51.2z" fill="#cdcdcd" p-id="5899"></path><path d="M517.688889 1024c-170.666667 0-335.644444-85.333333-438.044445-233.244444C5.688889 676.977778-17.066667 540.444444 11.377778 409.6c28.444444-136.533333 113.777778-250.311111 233.244444-324.266667 170.666667-108.088889 398.222222-102.4 568.888889 17.066667 28.444444 17.066667 34.133333 51.2 11.377778 79.644444-17.066667 28.444444-51.2 34.133333-79.644445 11.377778-136.533333-96.711111-307.2-102.4-443.733333-17.066666-91.022222 56.888889-159.288889 147.911111-182.044444 250.311111-17.066667 108.088889 0 210.488889 56.888889 301.511111C295.822222 910.222222 540.444444 967.111111 728.177778 853.333333c182.044444-119.466667 238.933333-364.088889 125.155555-546.133333-17.066667-28.444444-5.688889-62.577778 17.066667-79.644444 28.444444-17.066667 62.577778-5.688889 79.644444 17.066666 147.911111 233.244444 73.955556 551.822222-159.288888 705.422222-85.333333 45.511111-182.044444 73.955556-273.066667 73.955556z" fill="#cdcdcd" p-id="5900"></path></svg>