<svg t="1569466980880" class="icon" viewBox="0 0 1024 1024" version="1.1" xmlns="http://www.w3.org/2000/svg" p-id="8350" width="48" height="48"><path d="M51.564309 476.73793c1.459573 0.182447 2.919146 0.304078 4.317904 0.304078 14.899809 0 27.914336-10.945582 30.103695-26.089869C112.804348 263.216981 262.714669 113.309093 450.449827 86.488221c16.602644-2.371806 28.157598-17.817739 25.785791-34.420383-2.432622-16.602644-17.879771-27.852304-34.421599-25.785792-214.250736 30.651035-385.38325 201.722733-416.034285 416.035501-2.371806 16.602644 9.181931 32.048576 25.784575 34.420383zM450.449827 938.506722C262.714669 911.687066 112.804348 761.777961 85.985908 574.042804c-2.432622-16.66346-17.879771-27.914336-34.420382-25.847824-16.602644 2.373023-28.157598 17.818955-25.785792 34.360784C56.430769 796.928131 227.563283 968.061861 441.876051 998.712896c1.459573 0.182447 2.919146 0.304078 4.317904 0.304078 14.899809 0 27.913119-10.946798 30.103695-26.150685 2.369374-16.540612-9.184364-31.987761-25.847823-34.359567zM972.426009 548.257012c-16.602644-2.008129-31.988977 9.0603-34.421599 25.785792-26.819656 187.735158-176.72876 337.644262-364.463918 364.463918-16.66346 2.371806-28.217197 17.818955-25.846607 34.359567 2.18936 15.203886 15.141855 26.150685 30.042879 26.150685 1.398758 0 2.919146-0.121631 4.317904-0.304078 214.312768-30.651035 385.507313-201.722733 416.157132-416.035501 2.37059-16.601428-9.184364-32.048576-25.785791-34.420383zM573.539275 86.488221c187.735158 26.820872 337.645479 176.72876 364.463918 364.463918 2.18936 15.143071 15.203886 26.089869 30.04288 26.089869 1.398758 0 2.919146-0.121631 4.379936-0.304078 16.540612-2.371806 28.156381-17.817739 25.785791-34.420383-30.651035-214.251952-201.784765-385.384466-416.158348-416.035501-15.933673-2.18936-32.049793 9.061516-34.359567 25.785792-2.371806 16.602644 9.181931 32.048576 25.84539 34.420383zM816.06924 512.497471c0-167.667244-136.408053-304.075297-304.074081-304.075297-167.667244 0-304.075297 136.408053-304.075297 304.075297s136.408053 304.075297 304.075297 304.075297c167.666028 0 304.074081-136.408053 304.074081-304.075297zM511.995159 755.758439c-134.159094 0-243.260968-109.103089-243.260968-243.260968s109.101873-243.259751 243.260968-243.259751c134.157878 0 243.259751 109.101873 243.259751 243.259751s-109.101873 243.260968-243.259751 243.260968z" fill="#cdcdcd" p-id="8351"></path><path d="M511.995159 390.867596c-67.079547 0-121.629876 54.550328-121.629876 121.629875s54.550328 121.629876 121.629876 121.629876c67.078331 0 121.628659-54.550328 121.628659-121.629876s-54.550328-121.629876-121.628659-121.629875z m0 182.445421c-33.509366 0-60.815546-27.244148-60.815546-60.81433s27.30618-60.81433 60.815546-60.814329c33.50815 0 60.81433 27.244148 60.81433 60.814329 0 33.568965-27.30618 60.81433-60.81433 60.81433z" fill="#cdcdcd" p-id="8352"></path></svg>