<svg t="1569466793076" class="icon" viewBox="0 0 1024 1024" version="1.1" xmlns="http://www.w3.org/2000/svg" p-id="7274" width="48" height="48"><path d="M868.7616 251.0848l-44.2368 44.2368-87.6544 87.6544-45.4656 45.4656-200.704 200.704-144.5888-144.5888L287.5392 425.984c-11.8784-11.8784-31.1296-11.8784-42.5984 0-21.2992 24.1664-2.4576 41.7792 9.4208 53.248l191.6928 191.6928 1.6384 1.6384 26.2144 26.2144c9.4208 9.4208 24.576 9.4208 33.9968 0l226.9184-226.9184 45.4656-45.4656 73.728-73.728c18.0224 44.2368 27.4432 92.9792 27.0336 143.7696-2.8672 198.656-165.4784 360.448-363.7248 363.3152H237.568c-52.0192 0-94.208-42.1888-94.208-94.208v-282.624c4.096-199.8848 167.5264-360.448 368.64-360.448 97.8944 0 186.7776 38.0928 253.1328 100.352 11.8784 11.4688 32.3584 12.288 43.8272 0.4096 12.288-12.288 11.8784-31.9488-0.4096-44.2368-77.824-74.1376-183.0912-119.1936-299.008-118.3744C274.0224 63.0784 81.92 261.7344 81.92 496.8448V782.336c0 77.0048 62.2592 139.264 139.264 139.264h295.7312c231.424-2.8672 421.0688-190.8736 424.7552-422.7072 2.048-91.7504-25.3952-176.9472-72.9088-247.808z" p-id="7275" fill="#cdcdcd"></path></svg>