<svg t="1569467031107" class="icon" viewBox="0 0 1024 1024" version="1.1" xmlns="http://www.w3.org/2000/svg" p-id="9240" width="48" height="48"><path d="M512 896c211.2 0 384-172.8 384-384s-172.8-384-384-384-384 172.8-384 384 172.8 384 384 384z m0 64c-249.6 0-448-198.4-448-448s198.4-448 448-448 448 198.4 448 448-198.4 448-448 448z m6.4-729.6c-51.2 0-96 12.8-121.6 44.8-25.6 25.6-38.4 64-44.8 108.8 0 6.4 6.4 12.8 12.8 12.8h44.8c6.4 0 12.8-6.4 12.8-12.8 0-25.6 6.4-44.8 19.2-57.6 19.2-19.2 38.4-32 70.4-32 25.6 0 51.2 6.4 64 25.6 12.8 12.8 19.2 32 19.2 57.6 0 19.2-6.4 38.4-19.2 51.2l-12.8 12.8c-44.8 38.4-70.4 64-76.8 83.2-12.8 19.2-12.8 38.4-12.8 64 0 6.4 6.4 12.8 12.8 12.8h51.2c6.4 0 12.8-6.4 12.8-12.8 0-19.2 6.4-32 12.8-44.8 0-6.4 6.4-19.2 25.6-32 32-32 51.2-44.8 57.6-57.6 19.2-25.6 25.6-51.2 25.6-83.2 0-44.8-12.8-76.8-44.8-102.4-25.6-25.6-64-38.4-108.8-38.4z m-12.8 416c-12.8 0-25.6 6.4-38.4 12.8-12.8 6.4-12.8 19.2-12.8 38.4 0 12.8 6.4 25.6 12.8 38.4 12.8 12.8 25.6 12.8 38.4 12.8s25.6-6.4 38.4-12.8c12.8-12.8 12.8-19.2 12.8-38.4s-6.4-25.6-12.8-38.4c-6.4-12.8-19.2-12.8-38.4-12.8z" p-id="9241" fill="#ffffff"></path></svg>