<?xml version="1.0" encoding="UTF-8"?>
<svg width="40px" height="40px" viewBox="0 0 40 40" version="1.1" xmlns="http://www.w3.org/2000/svg" xmlns:xlink="http://www.w3.org/1999/xlink">
    <!-- Generator: Sketch 55.2 (78181) - https://sketchapp.com -->
    <title>bitcoin-wallet</title>
    <desc>Created with Sketch.</desc>
    <g id="页面1" stroke="none" stroke-width="1" fill="none" fill-rule="evenodd">
        <g id="侧边栏" transform="translate(-60.000000, -673.000000)" fill-rule="nonzero">
            <g id="bitcoin-wallet" transform="translate(60.000000, 673.000000)">
                <path d="M19.9217188,3.11953125 C10.6425,3.11953125 3.11953125,10.6423438 3.11953125,19.921875 C3.11953125,29.2014063 10.6425,36.724375 19.9217188,36.724375 C29.2017188,36.724375 36.7244531,29.2014063 36.7244531,19.921875 C36.7244531,10.6423437 29.2017188,3.11953125 19.9217188,3.11953125 Z" id="路径" fill="#EDF3FC"></path>
                <path d="M19.9217187,0 C8.93679688,0 0,8.93695313 0,19.921875 C0,30.9067969 8.93679688,39.84375 19.9217187,39.84375 C30.9067969,39.84375 39.84375,30.9067969 39.84375,19.921875 C39.84375,8.93695312 30.9067969,0 19.9217187,0 Z M19.9217188,39.2055469 C9.28875,39.2055469 0.638203125,30.5548438 0.638203125,19.921875 C0.638203125,9.28890625 9.28875,0.638203125 19.9217188,0.638203125 C30.5548438,0.638203125 39.2055469,9.28890625 39.2055469,19.921875 C39.2055469,30.5548438 30.5548438,39.2055469 19.9217188,39.2055469 Z" id="形状" fill="#EDF3FC"></path>
                <path d="M11.859375,11.2824219 C11.0525302,11.0801392 10.4225159,10.4501849 10.2201563,9.64335937 L10.185625,9.505625 L10.15125,9.64335937 C9.94878135,10.4501231 9.31881423,11.0800301 8.51203125,11.2824219 L8.37414063,11.3171094 L8.51203125,11.3516406 C9.31884071,11.5539856 9.94882807,12.183913 10.15125,12.9907031 L10.185625,13.1284375 L10.2201563,12.9907031 C10.4224847,12.18386 11.0525126,11.5538922 11.859375,11.3516406 L11.9972656,11.3171094 L11.859375,11.2824219 L11.859375,11.2824219 Z M28.6777344,12.1010156 C28.0703153,11.9490321 27.5960052,11.4748121 27.4439062,10.8674219 L27.4180469,10.76375 L27.391875,10.8674219 C27.2398027,11.4747711 26.765562,11.9489818 26.1582031,12.1010156 L26.0548438,12.1270312 L26.1582031,12.1528906 C26.7656765,12.3048707 27.2399719,12.7792261 27.391875,13.3867188 L27.4180469,13.4900781 L27.4439062,13.3867188 C27.5959297,12.7792382 28.0702538,12.3049141 28.6777344,12.1528906 L28.7810937,12.1270313 L28.6777344,12.1010156 L28.6777344,12.1010156 Z M23.6238281,6.76039062 C22.66441,6.51993918 21.9152543,5.77087354 21.6746875,4.81148437 L21.6339844,4.6478125 L21.5925,4.81148437 C21.3523048,5.77085982 20.6033116,6.52000316 19.6439844,6.76039063 L19.4805469,6.80148438 L19.6439844,6.8425 C20.6034149,7.08265565 21.3524982,7.83185906 21.5925,8.79132812 L21.6339844,8.95492188 L21.6746875,8.79132812 C21.9150612,7.83184539 22.6643069,7.08271981 23.6238281,6.8425 L23.7875781,6.80148438 L23.6238281,6.76039063 L23.6238281,6.76039062 Z" id="形状" fill="#FFBE1B"></path>
                <path d="M13.3442188,16.1340625 C13.3442188,15.685625 13.3917188,15.2484375 13.480625,14.8264844 L12.0727344,14.8264844 C11.0035156,14.8264844 10.134375,15.6803125 10.1085938,16.7428125 C10.1203125,16.8275781 10.2329688,17.4654688 11.0090625,17.8710156 C11.5267188,18.1417188 12.3659375,18.1385946 12.7623438,18.1385946 L13.6710938,18.1385946 C13.4544502,17.4924903 13.344058,16.8155198 13.3442188,16.1340625 L13.3442188,16.1340625 Z M26.9339844,14.8264844 L25.8323437,14.8264844 C25.923035,15.2564339 25.9687498,15.6946521 25.96875,16.1340625 C25.9688854,16.815556 25.8584398,17.4925563 25.6417187,18.1386719 L27.7710937,18.1386719 C28.1747084,18.1381532 28.5686005,18.2625101 28.89875,18.4946875 L28.89875,16.7911719 C28.8988281,15.70625 28.0191406,14.8264844 26.9339844,14.8264844 L26.9339844,14.8264844 Z" id="形状" fill="#282B71"></path>
                <path d="M19.6563281,9.82179687 C16.1702344,9.82179687 13.3442186,12.6475 13.3442186,16.1340625 C13.3442186,16.8155485 13.454515,17.4925426 13.6711719,18.1386719 L25.6417969,18.1386719 C25.8585233,17.4925576 25.9689691,16.8155564 25.9688283,16.1340625 C25.9688283,12.6475 23.1424219,9.82179687 19.6563281,9.82179687 L19.6563281,9.82179687 Z" id="路径" fill="#FFBE1B"></path>
                <path d="M19.6563281,11.3957031 C17.0396094,11.3957031 14.9179664,13.516875 14.9179664,16.1340625 C14.9172806,16.8268294 15.0691863,17.5112452 15.3628906,18.1386719 L23.9496094,18.1386719 C24.24326,17.5112299 24.3951376,16.8268205 24.3944554,16.1340625 C24.3944554,13.516875 22.2730469,11.3957031 19.6563281,11.3957031 L19.6563281,11.3957031 Z" id="路径" fill="#FFE37B"></path>
                <path d="M21.5667187,16.429375 C21.3978906,16.2347656 21.1711719,16.10625 20.8861719,16.0446875 C20.9415336,16.0208193 20.9963397,15.9956825 21.0505469,15.9692969 C21.0810937,15.9541406 21.13625,15.9157031 21.2147656,15.8538281 C21.4473437,15.6789063 21.5633594,15.41125 21.5633594,15.0517188 C21.5633594,14.7535938 21.4603906,14.4864063 21.254375,14.2496875 C21.1404687,14.1225 20.9707031,14.0214844 20.7446875,13.9467969 C20.6742051,13.9241706 20.6024702,13.9056499 20.5298437,13.8913281 L20.5298437,13.3065625 L19.7229687,13.3065625 L19.7229687,13.8354688 L19.1823437,13.8354688 L19.1823437,13.3065625 L18.3754687,13.3065625 L18.3754687,13.8354688 L17.4928125,13.8354688 L17.4928125,14.7033594 L18.1500781,14.7033594 L18.1500781,17.5642188 L17.4928125,17.5642188 L17.4928125,18.13875 L21.3410156,18.13875 C21.3955192,18.0994608 21.4457662,18.0545815 21.4909375,18.0048438 C21.7102344,17.7596875 21.8198438,17.476875 21.8198438,17.1564844 C21.8199219,16.8670313 21.7354687,16.6251563 21.5667187,16.429375 L21.5667187,16.429375 Z M19.17625,14.7032813 L19.6692187,14.7032813 C19.9721094,14.7032813 20.1864844,14.73625 20.3141406,14.8021875 C20.4408594,14.8678125 20.5046875,15.0022656 20.5046875,15.2064844 C20.5046875,15.4104688 20.4357031,15.5429688 20.2973437,15.6038281 C20.1592969,15.6655469 19.9480469,15.6961719 19.6627344,15.6961719 L19.17625,15.6961719 L19.17625,14.7032813 L19.17625,14.7032813 Z M20.5407031,17.4553906 C20.3939062,17.5278125 20.1735156,17.5641406 19.8796875,17.5641406 L19.1761719,17.5641406 L19.1761719,16.5052344 L19.7810937,16.5052344 C20.1232031,16.5052344 20.3719531,16.5394531 20.5274219,16.6071094 C20.6833594,16.6751563 20.7610938,16.8155469 20.7610938,17.028125 C20.7611719,17.2405469 20.6877344,17.3832031 20.5407031,17.4553906 L20.5407031,17.4553906 Z" id="形状" fill="#FFFFFF"></path>
                <path d="M27.7711719,18.1386719 L12.7623437,18.1386719 C12.3658594,18.1386719 11.5267188,18.1417969 11.0090625,17.8710938 C10.1764063,17.4359375 10.1073438,16.7332031 10.1073438,16.7332031 L10.1073438,29.6882813 C10.1073438,30.7735156 10.9872656,31.6532812 12.0726563,31.6532812 L27.7710938,31.6532812 C28.8564844,31.6532812 29.7359375,30.7735156 29.7359375,29.6882813 L29.7359375,20.1032031 C29.7359375,19.0179688 28.8565625,18.1386719 27.7711719,18.1386719 Z" id="路径" fill="#A293FE"></path>
                <path d="M24.4272656,22.7817187 C23.9410938,22.7817187 23.5467188,23.1759375 23.5467188,23.6622656 L23.5467188,26.0853125 C23.5467188,26.5717969 23.9410938,26.9659375 24.4272656,26.9659375 L29.7360156,26.9659375 L29.7360156,22.7817187 L24.4272656,22.7817187 Z" id="路径" fill="#8AC9F9"></path>
                <path d="M25.2541406,24.0000781 C24.7715625,24.0000781 24.3803125,24.3911719 24.3803125,24.8739063 C24.3803125,25.3564844 24.7715625,25.7478906 25.2541406,25.7478906 C25.7367187,25.7478906 26.1278125,25.3564844 26.1278125,24.8739063 C26.1278125,24.3911719 25.7367187,24.0000781 25.2541406,24.0000781 Z" id="路径" fill="#FFE37B"></path>
            </g>
        </g>
    </g>
</svg>