<?xml version="1.0" encoding="UTF-8"?>
<svg width="132px" height="152px" viewBox="0 0 132 152" version="1.1" xmlns="http://www.w3.org/2000/svg" xmlns:xlink="http://www.w3.org/1999/xlink">
    <title>编组</title>
    <defs>
        <linearGradient x1="-35.855475%" y1="-49.5641923%" x2="131.178264%" y2="135.578292%" id="linearGradient-1">
            <stop stop-color="#2FA9F6" offset="0%"></stop>
            <stop stop-color="#56CEDA" offset="99.9399038%"></stop>
        </linearGradient>
        <polygon id="path-2" points="0 0.947 131.2188 0.947 131.2188 150.99985 0 150.99985"></polygon>
        <linearGradient x1="11.7638562%" y1="0%" x2="88.2361438%" y2="100%" id="linearGradient-4">
            <stop stop-color="#26A0FB" offset="0%"></stop>
            <stop stop-color="#5FD7D5" offset="100%"></stop>
        </linearGradient>
    </defs>
    <g id="页面-1" stroke="none" stroke-width="1" fill="none" fill-rule="evenodd">
        <g id="画板" transform="translate(-325.000000, -188.000000)">
            <g id="编组" transform="translate(325.000000, 188.000000)">
                <path d="M72.1263,59.1007 L68.4663,110.5377 L65.6143,115.5737 L65.6143,115.5927 L65.6093,115.5827 L65.6043,115.5927 L65.6043,115.5737 L62.7523,110.5377 L59.0923,59.1007 C60.0043,59.1167 61.1383,59.2127 62.4113,59.4997 C63.6973,59.7897 64.7733,60.1957 65.6093,60.5767 C66.4453,60.1957 67.5213,59.7897 68.8073,59.4997 C70.0803,59.2127 71.2133,59.1167 72.1263,59.1007 L72.1263,59.1007 Z M35.5081,80.0811 C35.5081,80.0811 47.4521,80.6451 58.2981,86.6171 L58.2981,86.6171 L60.8281,109.3671 C60.8281,109.3671 52.4151,104.0411 41.6291,102.1771 L41.6291,102.1771 Z M95.7104,80.0813 L89.5894,102.1773 C78.8034,104.0413 70.3904,109.3673 70.3904,109.3673 L70.3904,109.3673 L72.9204,86.6173 C83.7664,80.6453 95.7104,80.0813 95.7104,80.0813 L95.7104,80.0813 Z M28.6749,55.2912 C28.6749,55.2912 40.0859,62.8652 55.9739,65.0382 L55.9739,65.0382 L57.8139,82.6992 C57.8139,82.6992 48.1939,77.0622 34.4989,76.3202 L34.4989,76.3202 Z M102.5429,55.2912 L96.7189,76.3202 C83.0239,77.0622 73.4049,82.6992 73.4049,82.6992 L73.4049,82.6992 L75.2449,65.0382 C91.1319,62.8652 102.5429,55.2912 102.5429,55.2912 L102.5429,55.2912 Z M65.6144,39.7857 C67.5584,39.7907 69.1334,41.3727 69.1334,43.3247 C69.1334,44.4227 68.6344,45.4047 67.8514,46.0527 L67.8514,46.0527 L68.3334,53.8447 C73.6274,54.1857 78.1594,55.5667 82.1634,57.4067 C82.8424,57.7467 83.2484,58.3607 83.2484,59.1097 C83.2484,60.1317 82.4344,61.0177 81.3494,61.0177 C80.3304,61.0177 79.5164,60.1317 79.5164,59.1097 C79.5164,58.7687 79.5844,58.4287 79.7204,58.1557 C78.0864,57.8227 76.0964,57.5567 73.8284,57.5437 C70.4984,57.5257 67.6934,58.0597 65.6144,58.6297 L65.6144,58.6297 C65.6124,58.6317 65.6104,58.6317 65.6094,58.6317 C65.6074,58.6317 65.6054,58.6317 65.6044,58.6327 L65.6044,58.6327 C63.5244,58.0597 60.7204,57.5257 57.3904,57.5437 C55.1224,57.5567 53.1324,57.8227 51.4974,58.1557 C51.6344,58.4287 51.7014,58.7687 51.7014,59.1097 C51.7014,60.1317 50.8874,61.0177 49.8694,61.0177 C48.7844,61.0177 47.9694,60.1317 47.9694,59.1097 C47.9694,58.3607 48.3764,57.7467 49.0554,57.4067 C53.0584,55.5667 57.5914,54.1857 62.8844,53.8447 L62.8844,53.8447 L63.3674,46.0527 C62.5844,45.4047 62.0854,44.4227 62.0854,43.3247 C62.0854,41.3727 63.6604,39.7907 65.6044,39.7857 L65.6044,39.7857 Z" id="形状结合" fill="url(#linearGradient-1)"></path>
                <g transform="translate(0.000000, 0.053000)">
                    <mask id="mask-3" fill="white">
                        <use xlink:href="#path-2"></use>
                    </mask>
                    <g id="Clip-14"></g>
                    <path d="M111.4178,100.2606 C111.4178,101.4426 110.7878,102.5326 109.7648,103.1236 L67.2618,127.6626 C66.2388,128.2536 64.9798,128.2536 63.9568,127.6626 L21.4538,103.1236 C20.4308,102.5326 19.8008,101.4426 19.8008,100.2606 L19.8008,51.1836 C19.8008,50.0016 20.4308,48.9106 21.4538,48.3206 L63.9568,23.7806 C64.9798,23.1916 66.2388,23.1916 67.2618,23.7806 L109.7648,48.3206 C110.7878,48.9106 111.4178,50.0016 111.4178,51.1836 L111.4178,100.2606 Z M67.9768,1.5806 C66.5118,0.7356 64.7068,0.7356 63.2418,1.5806 L2.3678,36.7276 C0.9018,37.5726 -0.0002,39.1356 -0.0002,40.8276 L-0.0002,111.1186 C-0.0002,112.8106 0.9018,114.3736 2.3678,115.2196 L63.2418,150.3646 C64.7068,151.2116 66.5118,151.2116 67.9768,150.3646 L128.8508,115.2196 C130.3158,114.3736 131.2188,112.8106 131.2188,111.1186 L131.2188,40.8276 C131.2188,39.1356 130.3158,37.5726 128.8508,36.7276 L67.9768,1.5806 Z" id="Fill-13" fill="url(#linearGradient-4)" mask="url(#mask-3)"></path>
                </g>
            </g>
        </g>
    </g>
</svg>