<?xml version="1.0" encoding="UTF-8"?>
<svg width="80px" height="80px" viewBox="0 0 80 80" version="1.1" xmlns="http://www.w3.org/2000/svg" xmlns:xlink="http://www.w3.org/1999/xlink">
    <!-- Generator: Sketch 55.2 (78181) - https://sketchapp.com -->
    <title>icon4</title>
    <desc>Created with Sketch.</desc>
    <g id="页面1" stroke="none" stroke-width="1" fill="none" fill-rule="evenodd">
        <g id="首页" transform="translate(-1000.000000, -975.000000)" fill-rule="nonzero">
            <g id="icon4" transform="translate(1000.000000, 975.000000)">
                <path d="M39.4123104,5.88235294 C20.8940518,5.88235294 5.88235294,20.8945009 5.88235294,39.4122324 C5.88235294,57.9296521 20.8940518,72.9411765 39.4123104,72.9411765 C57.9293217,72.9411765 72.9411765,57.9296521 72.9411765,39.4122324 C72.9411765,20.8945009 57.9293217,5.88235294 39.4123104,5.88235294 Z" id="路径" fill="#EDF3FC"></path>
                <path d="M40.0012549,0 C17.9447843,0 0,17.9436863 0,40 C0,62.0556863 17.9447843,80 40.0012549,80 C62.0566275,80 80,62.0556863 80,40 C80,17.9436863 62.0566275,0 40.0012549,0 Z M40.0012549,78.7178039 C18.6512941,78.7178039 1.28219608,61.3483922 1.28219608,40 C1.28219608,18.6503529 18.651451,1.2812549 40.0012549,1.2812549 C61.3499608,1.2812549 78.7181176,18.6505098 78.7181176,40 C78.7181176,61.3483922 61.3498039,78.7178039 40.0012549,78.7178039 Z" id="形状" fill="#EDF3FC"></path>
                <path d="M50.6333987,42.3529412 C48.6623478,42.3529412 47.0588235,43.9174587 47.0588235,45.8404514 L47.0588235,49.4117647 L51.755377,49.4117647 C51.9863183,49.0710113 52.2098166,48.7255105 52.4257209,48.3754958 C53.0714841,47.325067 53.6312146,46.2093296 54.1176471,45.0626717 C53.7542665,43.5131809 52.3306556,42.3529412 50.6333987,42.3529412 L50.6333987,42.3529412 Z" id="路径" fill="#282B71"></path>
                <path d="M56.2217358,27.42386 L40.4271301,20.2216309 C40.1096184,20.0755513 39.7628879,20 39.4118336,20 C39.0596557,20 38.7186956,20.0742881 38.3971692,20.2213227 L22.6016155,27.42386 C21.684752,27.841691 21.1145365,28.8182227 21.1818437,29.8537839 C21.4670304,34.2036344 22.5082386,42.4179978 26.2809195,48.5521454 C30.9745719,56.1834565 36.660611,58.2351594 38.8874376,58.7622645 C39.2302937,58.843488 39.5928996,58.8444128 39.9373356,58.7622645 C40.5427847,58.6187748 41.4056129,58.3610789 42.4337072,57.9104194 L42.4337072,51.0031843 C42.4337072,50.260151 43.0516381,49.6576791 43.8138214,49.6576791 L44.5918045,49.6576791 L44.5918045,45.8481885 C44.5918045,42.6007892 47.3005256,39.9586361 50.6298636,39.9586361 C52.5601276,39.9586361 54.280254,40.8476252 55.3863993,42.2267295 C56.902392,37.561849 57.4476438,32.8135872 57.6416656,29.8536298 C57.7091308,28.8185309 57.1384413,27.8419993 56.2217358,27.42386 L56.2217358,27.42386 Z" id="路径" fill="#282B71"></path>
                <path d="M51.7647059,50.5882353 L54.1176471,50.5882353 L54.1176471,46.7239398 C54.1176471,46.4345515 54.0869658,46.1532929 54.0307168,45.8823529 C53.5641058,47.1230799 53.0271835,48.3303498 52.4077342,49.4669533 C52.2006277,49.8456824 51.9862366,50.2195273 51.7647059,50.5882353 Z" id="路径" fill="#6857E5"></path>
                <path d="M57.3356135,25.3277438 L41.9260696,18.077096 C40.7054793,17.5038216 39.2954056,17.503708 38.0747241,18.0767857 L22.663947,25.3275886 C20.9531628,26.1322679 19.886736,27.9816649 20.0095955,29.9294356 C20.3007895,34.5100253 21.3738449,43.1774734 25.2953297,49.7567275 C30.3031271,58.1588456 36.5250293,60.4544936 38.9685002,61.0528051 C39.3062483,61.1339557 39.6537079,61.1764706 39.9999344,61.1764706 C40.3467775,61.1764706 40.6936205,61.1341109 41.0322935,61.0518741 C41.5516332,60.9249501 42.2422363,60.7205994 43.0550823,60.3978588 C42.9843809,60.23033 42.9480443,60.0501471 42.9482547,59.8681297 L42.9482547,58.0337836 C41.9451845,58.4874825 41.1033578,58.7470715 40.5126455,58.8913738 C40.1765931,58.9740761 39.8228132,58.9731451 39.4883023,58.8913738 C37.3156773,58.3607137 31.768038,56.2950184 27.1886304,48.6123947 C23.5076235,42.4367216 22.4917587,34.1669582 22.2136676,29.7879263 C22.1479986,28.7453809 22.7044891,27.7622633 23.5988817,27.3416143 L39.0099672,20.0905011 C39.3195485,19.9435202 39.6576434,19.8674241 39.9999344,19.8676859 C40.3429237,19.8676859 40.675893,19.9424748 40.9905182,20.0908114 L56.4006788,27.3416143 C57.2952256,27.7625736 57.8518702,28.7456913 57.7862012,29.787616 C57.5967478,32.7675361 57.0647676,37.5479767 55.5858288,42.2441633 C56.2926378,43.1513087 56.7197781,44.2470958 56.814424,45.396005 C59.0402316,39.7201143 59.7601237,33.5492512 59.9904275,29.9289702 C60.1131329,27.9822855 59.046706,26.1330437 57.3356135,25.3277438 L57.3356135,25.3277438 Z" id="路径" fill="#A293FE"></path>
                <path d="M36.1322527,13.8586421 C34.1352556,13.3528195 32.5791009,11.7758246 32.0756853,9.75667266 L31.9915731,9.41176471 L31.906832,9.75667266 C31.4056611,11.776844 29.8464726,13.3535444 27.8504217,13.8586421 L27.5120862,13.946023 L27.8504217,14.0337223 C29.8467562,14.5386153 31.4060953,16.1156515 31.906832,18.1361692 L31.9915731,18.4810771 L32.0756853,18.1361692 C32.5791009,16.1163806 34.1352556,14.5384307 36.1322527,14.0337223 L36.4705882,13.946023 L36.1322527,13.8586421 L36.1322527,13.8586421 Z M22.2163178,22.8012601 C20.886153,22.4639578 19.8471148,21.4132296 19.5124635,20.0669852 L19.4564935,19.8371527 L19.4000519,20.0669852 C19.0659647,21.4135536 18.0266819,22.4645292 16.6961977,22.8012601 L16.4705882,22.8595141 L16.6961977,22.9179272 C18.0269065,23.2544581 19.0663169,24.3056851 19.4000519,25.6525204 L19.4564935,25.8823529 L19.5124635,25.6525204 C19.8467945,24.3060274 20.8859464,23.2550618 22.2163178,22.9179272 L22.44177,22.8595141 L22.2163178,22.8012601 L22.2163178,22.8012601 Z" id="形状" fill="#330D84"></path>
                <path d="M65.6576575,46.4136113 C64.3480888,46.0854026 63.3256399,45.0623639 62.9978024,43.7522219 L62.9409299,43.5294118 L62.8843862,43.7522219 C62.5565035,45.0629876 61.5331377,46.0862481 60.222723,46.4136113 L60,46.4698483 L60.222723,46.5264141 C61.533169,46.8536177 62.5565821,47.8768623 62.8843862,49.1876391 L62.9409299,49.4117647 L62.9978024,49.1876391 C63.3254958,47.8774488 64.3480203,46.8543977 65.6576575,46.5264141 L65.8823529,46.4698483 L65.6576575,46.4136113 L65.6576575,46.4136113 Z" id="路径" fill="#FFE37B"></path>
                <path d="M35.6888047,64.038471 C33.9628567,63.5787111 32.6152221,62.1464564 32.1826257,60.3121334 L32.1095099,60 L32.0354724,60.3121334 C31.6034679,62.1469299 30.2554176,63.5795009 28.5289862,64.038471 L28.2352941,64.1181368 L28.5289862,64.1961702 C30.2553148,64.6547122 31.6034168,66.0869615 32.0354724,67.9215282 L32.1095099,68.2349676 L32.1826257,67.9215282 C32.6152733,66.0874352 33.9629594,64.6555023 35.6888047,64.1961702 L35.9837256,64.1181368 L35.6888047,64.038471 L35.6888047,64.038471 Z M42.1656971,65.5679573 C41.0688574,65.2751193 40.2124308,64.3649163 39.9368941,63.1992043 L39.8906591,63.0002029 L39.8431953,63.1992043 C39.568529,64.3652061 38.7120433,65.2757229 37.6150067,65.5679573 L37.428377,65.6177485 L37.6150067,65.6675397 C38.7119469,65.9591276 39.5685323,66.8692483 39.8431953,68.0349867 L39.8906591,68.2352941 L39.9368941,68.0349867 C40.2123974,66.8695202 41.0689366,65.9596995 42.1656971,65.6675397 L42.3529412,65.6177485 L42.1656971,65.5679573 L42.1656971,65.5679573 Z" id="形状" fill="#8AC9F9"></path>
                <path d="M50.5880814,41.1764706 C47.3446834,41.1764706 44.7058824,43.7403651 44.7058824,46.8915789 L44.7058824,50.5882353 L46.8724574,50.5882353 L46.8724574,46.8915789 C46.8724574,44.9010946 48.5392549,43.2816668 50.5880814,43.2816668 C52.6372157,43.2816668 54.3041671,44.9010946 54.3041671,46.8915789 L54.3041671,50.5882353 L56.4705882,50.5882353 L56.4705882,46.8915789 C56.4705882,43.7403651 53.8316333,41.1764706 50.5880814,41.1764706 Z" id="路径" fill="#FFE37B"></path>
                <path d="M57.4371558,50.5882353 L43.7396323,50.5882353 C42.9738168,50.5882353 42.3529412,51.2088341 42.3529412,51.9742235 L42.3529412,60.9663179 C42.3529412,61.3341008 42.4990436,61.6868179 42.7591032,61.9468648 C43.0191628,62.2069116 43.3718735,62.3529412 43.7396323,62.3529412 L57.4371558,62.3529412 C57.8048725,62.3529412 58.1575261,62.2068459 58.4175261,61.946799 C58.6775262,61.6867521 58.8235294,61.3340587 58.8235294,60.9663179 L58.8235294,51.9742235 C58.8235294,51.2088341 58.2028125,50.5882353 57.4371558,50.5882353 L57.4371558,50.5882353 Z" id="路径" fill="#8AC9F9"></path>
                <path d="M47.4401112,29.9571852 C46.4968357,29.1315778 45.0892181,29.2569003 44.2962648,30.2406263 L37.2499696,38.9743835 L34.371201,36.0718451 C33.4865952,35.179061 32.0735059,35.2033016 31.2156511,36.1263469 C30.3591643,37.0500259 30.3824194,38.5220502 31.2679371,39.415468 L35.8669751,44.0519246 C36.3118545,44.5003547 36.9154029,44.7360762 37.5334386,44.7027777 C38.1510617,44.669608 38.7277408,44.3705981 39.125729,43.8771703 L47.7112687,33.2344236 C48.504678,32.2513313 48.3835386,30.7839017 47.4401112,29.9571852 L47.4401112,29.9571852 Z" id="路径" fill="#FFFFFF"></path>
            </g>
        </g>
    </g>
</svg>