<?xml version="1.0" encoding="UTF-8"?>
<svg width="80px" height="80px" viewBox="0 0 80 80" version="1.1" xmlns="http://www.w3.org/2000/svg" xmlns:xlink="http://www.w3.org/1999/xlink">
    <!-- Generator: Sketch 55.2 (78181) - https://sketchapp.com -->
    <title>icon1</title>
    <desc>Created with Sketch.</desc>
    <g id="页面1" stroke="none" stroke-width="1" fill="none" fill-rule="evenodd">
        <g id="首页" transform="translate(-400.000000, -685.000000)" fill-rule="nonzero">
            <g id="icon1" transform="translate(400.000000, 685.000000)">
                <path d="M39.845,6.23875 C21.2854687,6.23875 6.2403125,21.2845313 6.2403125,39.84375 C6.2403125,58.4026563 21.2854687,73.4478125 39.845,73.4478125 C58.4032812,73.4478125 73.4485937,58.4026563 73.4485937,39.84375 C73.4485937,21.2845313 58.4032812,6.23875 39.845,6.23875 Z" id="路径" fill="#EDF3FC"></path>
                <path d="M39.845,0 C17.8746875,0 0,17.87375 0,39.84375 C0,61.8132813 17.8746875,79.6875 39.845,79.6875 C61.8142188,79.6875 79.6875,61.8132813 79.6875,39.84375 C79.6875,17.87375 61.8142188,0 39.845,0 Z M39.845,78.4104688 C18.5784375,78.4104688 1.2771875,61.1089062 1.2771875,39.84375 C1.2771875,18.5776562 18.5785937,1.27640625 39.845,1.27640625 C61.1103125,1.27640625 78.410625,18.5778125 78.410625,39.84375 C78.410625,61.1089062 61.1101563,78.4104688 39.845,78.4104688 Z" id="形状" fill="#EDF3FC"></path>
                <path d="M24.5328125,31.8696875 C22.8110938,31.4392188 21.4696875,30.0960938 21.035625,28.3760938 L20.9629688,28.0826563 L20.89,28.3760938 C20.4580214,30.0966626 19.1136876,31.439555 17.3926563,31.8696875 L17.1009375,31.9439062 L17.3926563,32.0184375 C19.1137872,32.4485921 20.4581531,33.7916367 20.89,35.5123437 L20.9629688,35.8057812 L21.035625,35.5123437 C21.4695313,33.791875 22.8110938,32.44875 24.5328125,32.0184375 L24.8246875,31.9439062 L24.5328125,31.8696875 L24.5328125,31.8696875 Z M20.3029688,25.284375 C19.2233876,25.0140772 18.3801245,24.1716548 18.10875,23.0923438 L18.063125,22.9082813 L18.0173437,23.0923438 C17.7463477,24.1719256 16.9028396,25.0145328 15.8229688,25.284375 L15.6398438,25.3309375 L15.8229688,25.3776563 C16.9029159,25.6474626 17.7464604,26.4901663 18.0173438,27.5698438 L18.063125,27.7540625 L18.10875,27.5698438 C18.3799808,26.4904195 19.2232937,25.6478872 20.3029688,25.3776563 L20.4860938,25.3309375 L20.3029688,25.284375 Z" id="形状" fill="#8AC9F9"></path>
                <path d="M65.3890625,50.9004687 C63.6334022,50.460302 62.2625898,49.0894296 61.8225,47.33375 L61.7479687,47.035 L61.6726562,47.33375 C61.2332308,49.0899181 59.8619686,50.4611202 58.1057812,50.9004687 L57.8070312,50.9765625 L58.1057812,51.0514062 C59.8617998,51.4902606 61.2331095,52.8610297 61.6726562,54.616875 L61.7479687,54.916875 L61.8225,54.616875 C62.2626178,52.8614654 63.633518,51.4909856 65.3890625,51.0514062 L65.6890625,50.9765625 L65.3890625,50.9004688 L65.3890625,50.9004687 Z M60.9329688,57.3126562 C59.817204,57.0324365 58.946001,56.1612335 58.6657813,55.0454687 L58.61875,54.855 L58.5704688,55.0454687 C58.2911034,56.1614933 57.4198538,57.0329832 56.3039063,57.3126562 L56.1140625,57.3603125 L56.3039063,57.4079687 C57.4197203,57.6870854 58.2910443,58.5581692 58.5704688,59.6739062 L58.61875,59.865625 L58.6657813,59.6739062 C58.9460915,58.558447 59.8173551,57.6876638 60.9329688,57.4079687 L61.1234375,57.3603125 L60.9329688,57.3126562 L60.9329688,57.3126562 Z" id="形状" fill="#330D84"></path>
                <path d="M39.8434375,16.240625 C33.6495313,16.240625 28.6104687,21.279375 28.6104687,27.4728125 L28.6104687,31.3315625 C28.6104687,32.1945312 29.3101562,32.8940625 30.1729687,32.8940625 C31.0357812,32.8940625 31.7354687,32.1945312 31.7354687,31.3315625 L31.7354687,27.4728125 C31.7354687,23.0025 35.3726562,19.365625 39.8434375,19.365625 C44.314375,19.365625 47.9520312,23.0025 47.9520312,27.4728125 L47.9520312,35.13875 L51.0770312,35.13875 L51.0770312,27.4728125 C51.0770312,21.2795312 46.0376562,16.240625 39.8434375,16.240625 L39.8434375,16.240625 Z" id="路径" fill="#8AC9F9"></path>
                <path d="M53.2254687,58.12375 L26.4629687,58.12375 C26.4317188,58.12375 26.40125,58.1201563 26.3703125,58.1190625 C26.5373437,59.1835938 27.4559375,59.99875 28.5678125,59.99875 L51.1203125,59.99875 C52.2317187,59.99875 53.1501562,59.1835938 53.3171875,58.1190625 C53.2864062,58.1201563 53.2564062,58.12375 53.2254688,58.12375 L53.2254687,58.12375 Z" id="路径" fill="#A293FE"></path>
                <path d="M53.2254688,35.13875 L26.4629688,35.13875 C24.9664063,35.13875 23.7532813,36.3517188 23.7532813,37.8473438 L23.7532813,55.4146875 C23.7532813,56.9109375 24.9664063,58.12375 26.4629687,58.12375 L53.2253125,58.12375 C54.72125,58.12375 55.9340625,56.9107813 55.9340625,55.4146875 L55.9340625,37.8473438 C55.9340625,36.3517188 54.7214063,35.13875 53.2254688,35.13875 Z" id="路径" fill="#282B71"></path>
                <path d="M32.6382812,51.8832812 L34.0557812,50.4095313 C34.6109375,49.8321875 34.9914062,49.3576562 35.1978125,48.9864062 C35.4040625,48.6151562 35.5071875,48.2270312 35.5071875,47.8220312 C35.5071875,47.0795312 35.2501562,46.4928125 34.73625,46.0614063 C34.2226562,45.6301563 33.62625,45.4145313 32.9476562,45.4145313 C32.2689062,45.4145313 31.7101562,45.5607812 31.27125,45.8532813 C30.8326562,46.1457813 30.4292187,46.5771875 30.061875,47.1470312 L31.468125,47.9795312 C31.910625,47.2746875 32.379375,46.9220312 32.874375,46.9220312 C33.1445312,46.9220312 33.3657812,47.0103125 33.538125,47.1864062 C33.7107812,47.3626563 33.796875,47.5821875 33.796875,47.8445312 C33.796875,48.1071875 33.6973437,48.3789062 33.49875,48.6601562 C33.3001562,48.9414063 32.9682812,49.3182812 32.5032812,49.7907813 L30.1970312,52.1532812 L30.1970312,53.4582812 L35.7432812,53.4582812 L35.7432812,51.8832812 L32.6382812,51.8832812 Z M41.6946875,49.0145312 C41.146875,48.5571875 40.494375,48.3282812 39.7370313,48.3282812 C39.4370313,48.3282812 39.170625,48.3620313 38.9384375,48.4295313 L38.9384375,47.1132813 L42.0432812,47.1132813 L42.0432812,45.5945313 L37.2959375,45.5945313 L37.2959375,49.4307813 L38.0271875,50.2184375 C38.5520312,49.9334375 39.0132812,49.7907813 39.4107812,49.7907813 C39.8082812,49.7907813 40.1325,49.8864063 40.3840625,50.0776563 C40.6353125,50.2689063 40.7609375,50.5409375 40.7609375,50.8932813 C40.7609375,51.2459375 40.6446875,51.5120312 40.4121875,51.6920313 C40.1796875,51.8721875 39.9132812,51.9620313 39.6135937,51.9620313 C39.3135937,51.9620313 39.0132812,51.8815625 38.7135937,51.7201563 C38.4132812,51.5589063 38.2073437,51.4296875 38.0946875,51.3320313 C38.0019389,51.2525238 37.9118379,51.1699789 37.8245312,51.0845313 L36.9023437,52.3670313 C37.6146875,53.1546875 38.5032812,53.5482813 39.5684375,53.5482813 C40.4009375,53.5482813 41.1004687,53.2951563 41.6665625,52.7889063 C42.2329687,52.2826563 42.51625,51.6414063 42.51625,50.8651563 C42.5159375,50.0889063 42.241875,49.4720313 41.6946875,49.0145313 L41.6946875,49.0145312 Z M48.8101562,48.9920312 C48.31875,48.5121875 47.7057813,48.2720312 46.9709375,48.2720312 C46.4234375,48.2720312 45.9059375,48.4295312 45.4184375,48.7445312 C45.4782812,48.1820312 45.6415625,47.7378125 45.9076562,47.4114062 C46.17375,47.0851562 46.550625,46.9220312 47.0382812,46.9220312 C47.278125,46.9220312 47.525625,46.9821875 47.7807812,47.1020312 C48.035625,47.2221875 48.2065625,47.3196875 48.2925,47.3945312 C48.3789062,47.4695313 48.4445312,47.5296875 48.4896875,47.5745312 L49.321875,46.336875 C49.1042187,46.164375 48.9059375,46.021875 48.7259375,45.909375 C48.5459375,45.796875 48.2889062,45.68625 47.9553125,45.5775 C47.6214062,45.4689062 47.2707812,45.414375 46.9034375,45.414375 C46.0184375,45.414375 45.2759375,45.729375 44.6759375,46.359375 C44.3682812,46.674375 44.12625,47.1039062 43.9501562,47.6475 C43.77375,48.1914062 43.6859375,48.823125 43.6859375,49.543125 C43.6859375,50.6607812 43.9107812,51.590625 44.360625,52.333125 C44.5857812,52.715625 44.9026562,53.01375 45.31125,53.2275 C45.7201562,53.44125 46.2017187,53.548125 46.7571875,53.548125 C47.5595312,53.548125 48.2251562,53.308125 48.7539062,52.828125 C49.2825,52.3482812 49.5470313,51.70875 49.5470313,50.91 C49.5471875,50.1114062 49.3014062,49.4720313 48.8101562,48.9920312 Z M47.6007812,51.7595312 C47.3759375,51.9696875 47.0945312,52.0745312 46.7573437,52.0745312 C46.4198437,52.0745312 46.1384375,51.9565625 45.9135937,51.7201563 C45.6884375,51.4839063 45.5760937,51.2009375 45.5760937,50.8707813 C45.5760937,50.5409375 45.6942187,50.2728125 45.9304687,50.0664062 C46.1667187,49.8603125 46.459375,49.7570312 46.8078125,49.7570312 C47.1565625,49.7570312 47.4321875,49.8714063 47.6348437,50.1001563 C47.8371875,50.3290625 47.9384375,50.6103125 47.9384375,50.9439062 C47.9382812,51.2776562 47.8259375,51.5496875 47.6007812,51.7595313 L47.6007812,51.7595312 Z" id="形状" fill="#FFE37B"></path>
                <path d="M46.7432812,37.8498438 L46.7432812,35.13875 L45.8304687,35.13875 L45.8304687,37.450625 L43.43,39.6701563 L43.43,42.57625 C43.1717353,42.7347731 43.0143063,43.0160275 43.0142187,43.3190625 C43.0142187,43.8010938 43.4048437,44.1914065 43.8864062,44.1914065 C44.1178888,44.1915721 44.3399495,44.0997429 44.5037057,43.9361332 C44.6674619,43.7725235 44.7594899,43.5505451 44.7595312,43.3190625 C44.7594677,43.0156578 44.601624,42.7341195 44.3428125,42.5757813 L44.3428125,40.069375 L46.7432812,37.8498438 L46.7432812,37.8498438 Z M28.3998437,40.1482813 L28.3998437,35.13875 L27.4870312,35.13875 L27.4870312,39.9579688 L26.163125,42.995625 L26.163125,50.5626563 C25.9039376,50.7207105 25.7457812,51.0023601 25.7457812,51.3059375 C25.7521704,51.7834674 26.1410993,52.1672274 26.6186719,52.1672274 C27.0962445,52.1672274 27.4851734,51.7834674 27.4915625,51.3059375 C27.4914605,51.003029 27.3340928,50.721897 27.0759375,50.5634375 L27.0759375,43.1859375 L28.3998437,40.1482813 Z M35.1984375,40.8464063 L35.1984375,38.8310938 L33.4435937,37.96 L33.4435937,35.13875 L32.5307812,35.13875 L32.5307812,38.5257813 L34.285625,39.396875 L34.285625,40.8467188 C33.953557,41.0512175 33.7976017,41.4513063 33.9036691,41.826591 C34.0097365,42.2018757 34.3520457,42.4611391 34.7420312,42.4615625 C35.2245312,42.4615625 35.6153125,42.0709375 35.6153125,41.5890625 C35.6152116,41.2857934 35.457278,41.0044372 35.1984375,40.8464063 L35.1984375,40.8464063 Z M52.9676562,47.0776563 L52.9676562,41.2757813 L51.34375,38.76625 L51.34375,35.13875 L50.4309375,35.13875 L50.4309375,39.035625 L52.0548438,41.5451563 L52.0548438,47.0782813 C51.7966265,47.2367753 51.6392043,47.5179581 51.6390625,47.8209375 C51.6390624,48.3027092 52.0294783,48.693335 52.51125,48.6935938 C52.9940625,48.6935938 53.3846875,48.3029688 53.3846875,47.8209375 C53.3846489,47.5174465 53.2266557,47.2358526 52.9676563,47.0776563 L52.9676562,47.0776563 Z M39.8834375,38.391875 L39.8834375,35.13875 L38.970625,35.13875 L38.970625,38.3923438 C38.7125317,38.5507686 38.5552185,38.8318499 38.5551562,39.1346875 C38.5491833,39.4502253 38.7141026,39.7443842 38.9864143,39.9039026 C39.2587259,40.0634209 39.5959616,40.0634209 39.8682732,39.9039026 C40.1405849,39.7443842 40.3055042,39.4502253 40.2995313,39.1346875 C40.2996206,38.8315267 40.1420033,38.5501476 39.8834375,38.391875 L39.8834375,38.391875 Z" id="形状" fill="#FFFFFF"></path>
            </g>
        </g>
    </g>
</svg>