<?xml version="1.0" encoding="UTF-8"?>
<svg width="80px" height="80px" viewBox="0 0 80 80" version="1.1" xmlns="http://www.w3.org/2000/svg" xmlns:xlink="http://www.w3.org/1999/xlink">
    <!-- Generator: Sketch 55.2 (78181) - https://sketchapp.com -->
    <title>icon2</title>
    <desc>Created with Sketch.</desc>
    <g id="页面1" stroke="none" stroke-width="1" fill="none" fill-rule="evenodd">
        <g id="首页" transform="translate(-1000.000000, -685.000000)" fill-rule="nonzero">
            <g id="icon2" transform="translate(1000.000000, 685.000000)">
                <path d="M39.8448438,6.23890625 C21.2853125,6.23890625 6.24015625,21.2853125 6.24015625,39.844375 C6.24015625,58.4034375 21.2853125,73.4485938 39.8448438,73.4485938 C58.4034375,73.4485938 73.4485938,58.4032813 73.4485938,39.844375 C73.4485938,21.2853125 58.4032813,6.23890625 39.8448438,6.23890625 Z" id="路径" fill="#EDF3FC"></path>
                <path d="M39.8448438,0 C17.874375,0 0,17.8740625 0,39.8442188 C0,61.8139063 17.874375,79.6875 39.8448438,79.6875 C61.8140625,79.6875 79.6875,61.8139063 79.6875,39.8442188 C79.6875,17.8740625 61.8140625,0 39.8448438,0 Z M39.8448438,78.4109375 C18.578125,78.4109375 1.27671875,61.11 1.27671875,39.8442188 C1.27671875,18.5779688 18.578125,1.2765625 39.8448438,1.2765625 C61.1101563,1.2765625 78.4107813,18.5779688 78.4107813,39.8442188 C78.4107813,61.11 61.11,78.4109375 39.8448438,78.4109375 Z" id="形状" fill="#EDF3FC"></path>
                <path d="M47.2878125,18.7620312 C46.9814876,18.6570319 46.6729257,18.5586756 46.3623437,18.4670312 C46.1636378,18.408278 45.9497279,18.4309041 45.7677106,18.5299278 C45.5856933,18.6289515 45.4504924,18.796254 45.391875,18.995 C45.3331652,19.1937055 45.3558108,19.4075961 45.4548284,19.5896022 C45.5538461,19.7716083 45.7211216,19.9068152 45.9198437,19.9654687 C46.208125,20.050625 46.4978125,20.1429687 46.7809375,20.2401562 C47.1891104,20.3801259 47.6334678,20.1627042 47.7734375,19.7545312 C47.9134071,19.3463583 47.6959854,18.9020009 47.2878125,18.7620312 L47.2878125,18.7620312 Z M54.0771875,22.4932813 C53.7400781,22.2239562 53.2484658,22.2789062 52.9791407,22.6160156 C52.7098156,22.9531251 52.7647656,23.4447374 53.101875,23.7140625 C53.5375914,24.0622846 53.9595282,24.4274071 54.3667187,24.8085938 C54.5112653,24.9444549 54.7022519,25.0199664 54.900625,25.0196883 C55.2213283,25.0198304 55.5095305,24.8239279 55.627399,24.5256702 C55.7452675,24.2274126 55.6688478,23.8874149 55.4346875,23.6682813 C54.9977133,23.2590286 54.5448657,22.8670611 54.0771875,22.4932813 Z M51.6220312,20.7840625 C51.1090255,20.4748624 50.5839788,20.1860946 50.048125,19.9184375 C49.6620434,19.7256988 49.1928169,19.8824341 49.0000781,20.2685156 C48.8073394,20.6545972 48.9640747,21.1238238 49.3501562,21.3165625 C49.8490335,21.5656625 50.3378538,21.8344146 50.8154687,22.1221875 C50.9928677,22.2292719 51.2055581,22.2614464 51.4066929,22.2116243 C51.6078277,22.1618022 51.7809085,22.0340702 51.8878125,21.8565625 C51.9948067,21.6790995 52.0269136,21.4663989 51.9770687,21.2652613 C51.9272238,21.0641236 51.7995111,20.8910286 51.6220312,20.7840625 Z M60.864375,31.4725 C60.6330175,30.9203608 60.3799029,30.3775925 60.105625,29.8454688 C59.907838,29.461976 59.4366177,29.3114318 59.053125,29.5092188 C58.6696323,29.7070057 58.519088,30.178226 58.716875,30.5617187 C58.9715625,31.0554687 59.2092187,31.5651562 59.4234375,32.0764062 C59.531315,32.333805 59.7683184,32.5140992 60.045171,32.5493739 C60.3220235,32.5846487 60.5966646,32.4695448 60.7656397,32.2474208 C60.9346148,32.0252968 60.9722525,31.7298987 60.864375,31.4725 L60.864375,31.4725 Z M58.5620312,27.2832813 C58.2198853,26.7920257 57.8586185,26.3143675 57.4790625,25.8514062 C57.2054227,25.5177918 56.7131458,25.4691727 56.3795313,25.7428125 C56.0459168,26.0164524 55.9972977,26.5087292 56.2709375,26.8423437 C56.6245279,27.2734886 56.9610376,27.7183631 57.2796875,28.1759375 C57.3979047,28.346186 57.5789984,28.4624068 57.7830174,28.4989602 C57.9870363,28.5355136 58.1972156,28.4893959 58.3671875,28.3707813 C58.7212836,28.1242725 58.808516,27.6373941 58.5620313,27.2832813 L58.5620312,27.2832813 Z M62.0689062,35.2510937 C61.9981139,34.9350245 61.9204916,34.6205238 61.8360938,34.3078125 C61.7632451,34.0383561 61.5521768,33.8282324 61.2823964,33.756593 C61.0126159,33.6849536 60.7251094,33.7626823 60.5281776,33.9604993 C60.3312459,34.1583163 60.2548076,34.4461686 60.3276563,34.715625 C60.405625,35.00375 60.4784375,35.2989063 60.544375,35.5928125 C60.6387003,36.0138395 61.0564703,36.2786883 61.4775,36.184375 C61.898485,36.0899037 62.163234,35.6721109 62.0689063,35.2510938 L62.0689062,35.2510937 Z M18.9478125,33.8285938 C18.5309424,33.7176722 18.1030477,33.9655406 17.991875,34.3823438 C17.9090625,34.6928125 17.831875,35.0104688 17.7621875,35.3264063 C17.7021222,35.5989887 17.7920406,35.8829098 17.9980713,36.0712191 C18.2041021,36.2595284 18.4949441,36.3236173 18.7610401,36.2393441 C19.0271361,36.1550709 19.2280597,35.9352387 19.288125,35.6626563 C19.3529687,35.36875 19.4246875,35.0732813 19.5015625,34.7846875 C19.5549211,34.5844696 19.5265558,34.3712554 19.4227069,34.1919518 C19.3188579,34.0126483 19.1480326,33.881944 18.9478125,33.8285938 L18.9478125,33.8285938 Z M21.2298437,28.7685938 C21.0495593,28.6664621 20.8360867,28.6401325 20.636389,28.6953973 C20.4366914,28.7506622 20.2671272,28.8829943 20.165,29.0632813 C19.8101109,29.6899664 19.4852639,30.3331948 19.1915625,30.9907813 C19.072919,31.2464137 19.1011507,31.5461318 19.2654421,31.7751134 C19.4297335,32.004095 19.7046165,32.126844 19.9847833,32.0963351 C20.2649501,32.0658262 20.50697,31.8867889 20.618125,31.6278125 C20.8916171,31.0155931 21.1940948,30.4167384 21.5245313,29.8332813 C21.7371034,29.4578931 21.6051791,28.981259 21.2298438,28.7685938 L21.2298437,28.7685938 Z M23.6045313,24.4632813 C23.1043963,24.9810766 22.6288718,25.5220901 22.1795312,26.0845313 C21.9135363,26.4218677 21.969808,26.9106759 22.3054975,27.1787464 C22.641187,27.4468168 23.130333,27.393561 23.4004687,27.0595313 C23.8190847,26.5354965 24.2621267,26.0314496 24.728125,25.5490625 C25.026375,25.2385487 25.0171851,24.745264 24.7075764,24.4460746 C24.3979676,24.1468852 23.9046574,24.1545804 23.6045312,24.4632813 L23.6045313,24.4632813 Z M29.1584375,21.126875 C28.9330128,20.759034 28.4520984,20.6435446 28.0842188,20.8689063 C27.4704314,21.2452014 26.8747672,21.6502886 26.2992188,22.0828125 C26.0741499,22.2498341 25.9557944,22.5246208 25.9890593,22.8029113 C26.0223243,23.0812019 26.2021121,23.3203505 26.4602067,23.4296181 C26.7183012,23.5388856 27.0151516,23.5015276 27.238125,23.3317188 C27.7741914,22.9288927 28.3289756,22.5515977 28.900625,22.2010938 C29.077309,22.0928719 29.2037444,21.9188728 29.2520978,21.7174003 C29.3004512,21.5159279 29.2667587,21.3034981 29.1584375,21.126875 L29.1584375,21.126875 Z M33.2001562,19.3567188 C33.0532508,18.9511566 32.6055068,18.7413422 32.1998437,18.8879687 C31.8953741,18.998139 31.5933243,19.1148851 31.2939062,19.238125 C30.9489827,19.3802191 30.7526019,19.7463088 30.8249943,20.1122629 C30.8973866,20.4782169 31.2183607,20.7419645 31.5914062,20.7420312 C31.6904687,20.7420312 31.7910937,20.723125 31.8882812,20.6829688 C32.1669008,20.5683394 32.4479555,20.4597205 32.73125,20.3571875 C32.9261591,20.2867749 33.0850883,20.1417777 33.1730372,19.9541278 C33.2609862,19.766478 33.270742,19.5515652 33.2001562,19.3567187 L33.2001562,19.3567188 Z" id="形状" fill="#330D84"></path>
                <path d="M18.9478125,33.8285937 C18.5309424,33.7176722 18.1030477,33.9655406 17.991875,34.3823437 C17.9090625,34.6928125 17.831875,35.0104687 17.7621875,35.3264062 C17.7021222,35.5989887 17.7920406,35.8829098 17.9980713,36.0712191 C18.2041021,36.2595284 18.4949441,36.3236173 18.7610401,36.2393441 C19.0271361,36.1550709 19.2280597,35.9352387 19.288125,35.6626562 C19.3529687,35.36875 19.4246875,35.0732812 19.5015625,34.7846875 C19.5549211,34.5844696 19.5265558,34.3712554 19.4227069,34.1919518 C19.3188579,34.0126483 19.1480326,33.881944 18.9478125,33.8285937 L18.9478125,33.8285937 Z M21.2298437,28.7685937 C21.0495593,28.6664621 20.8360867,28.6401325 20.636389,28.6953973 C20.4366914,28.7506622 20.2671272,28.8829943 20.165,29.0632812 C19.8101109,29.6899664 19.4852639,30.3331948 19.1915625,30.9907812 C19.072919,31.2464137 19.1011507,31.5461318 19.2654421,31.7751134 C19.4297335,32.004095 19.7046165,32.126844 19.9847833,32.0963351 C20.2649501,32.0658262 20.50697,31.8867889 20.618125,31.6278125 C20.8916171,31.0155931 21.1940948,30.4167384 21.5245313,29.8332813 C21.7371034,29.4578931 21.6051791,28.981259 21.2298438,28.7685938 L21.2298437,28.7685937 Z M23.6045313,24.4632812 C23.1043963,24.9810766 22.6288718,25.5220901 22.1795313,26.0845313 C21.9135363,26.4218677 21.969808,26.9106759 22.3054975,27.1787464 C22.641187,27.4468168 23.130333,27.393561 23.4004687,27.0595313 C23.8190847,26.5354965 24.2621267,26.0314496 24.728125,25.5490625 C25.026375,25.2385487 25.0171851,24.745264 24.7075764,24.4460746 C24.3979676,24.1468852 23.9046574,24.1545804 23.6045312,24.4632813 L23.6045313,24.4632812 Z M29.1584375,21.126875 C28.9330128,20.759034 28.4520984,20.6435446 28.0842188,20.8689062 C27.4704314,21.2452014 26.8747672,21.6502886 26.2992188,22.0828125 C26.0741499,22.2498341 25.9557944,22.5246208 25.9890593,22.8029113 C26.0223243,23.0812019 26.2021121,23.3203505 26.4602067,23.4296181 C26.7183012,23.5388856 27.0151516,23.5015276 27.238125,23.3317187 C27.7741914,22.9288927 28.3289756,22.5515977 28.900625,22.2010938 C29.077309,22.0928719 29.2037444,21.9188728 29.2520978,21.7174003 C29.3004512,21.5159279 29.2667587,21.3034981 29.1584375,21.126875 L29.1584375,21.126875 Z M33.2001562,19.3567188 C33.0532508,18.9511566 32.6055068,18.7413422 32.1998437,18.8879688 C31.8953741,18.998139 31.5933243,19.1148851 31.2939063,19.238125 C30.9489827,19.3802191 30.7526019,19.7463088 30.8249943,20.1122629 C30.8973866,20.4782169 31.2183607,20.7419645 31.5914063,20.7420313 C31.6904688,20.7420313 31.7910938,20.723125 31.8882813,20.6829688 C32.1669008,20.5683394 32.4479555,20.4597205 32.73125,20.3571875 C32.9261591,20.2867749 33.0850883,20.1417777 33.1730372,19.9541278 C33.2609862,19.766478 33.270742,19.5515652 33.2001563,19.3567188 L33.2001562,19.3567188 Z M33.480625,60.3648437 C33.1936003,60.2730785 32.9085862,60.1751391 32.6257812,60.0710937 C32.2227487,59.9292275 31.7805007,60.1373813 31.6329787,60.5383781 C31.4854566,60.939375 31.6873682,61.3845075 32.08625,61.5376562 C32.390159,61.6494119 32.6964272,61.7546443 33.0048437,61.8532812 C33.4106839,61.968777 33.8349416,61.7413496 33.963416,61.3394294 C34.0918904,60.9375092 33.8782103,60.5061641 33.480625,60.3648437 L33.480625,60.3648437 Z M21.9375,51.33125 C21.7073027,50.9722961 21.231831,50.8641785 20.8690493,51.0882948 C20.5062675,51.312411 20.3901535,51.7859934 20.608125,52.1525 C20.9391253,52.6877235 21.2920821,53.2090529 21.6660937,53.7151562 C21.8134371,53.9146479 22.046838,54.0322184 22.2948437,54.0318758 C22.5897248,54.0316917 22.8593784,53.8654898 22.9920586,53.6021443 C23.1247387,53.3387989 23.0978363,53.0231845 22.9225,52.7860938 C22.5742204,52.3149538 22.2456054,51.8295899 21.9375,51.33125 L21.9375,51.33125 Z M29.955625,58.87125 C29.4392143,58.5943772 28.9345097,58.2962042 28.4428125,57.9775 C28.0811474,57.7512814 27.60489,57.8569247 27.3727996,58.21485 C27.1407091,58.5727752 27.2385662,59.0506932 27.5926563,59.2885937 C28.1208257,59.6309578 28.6629576,59.9512848 29.2176563,60.24875 C29.5979186,60.452478 30.0713359,60.3094315 30.2751563,59.9292187 C30.4790165,59.5488273 30.3359694,59.075198 29.955625,58.87125 L29.955625,58.87125 Z M24.8217187,55.0145312 C24.519265,54.7097384 24.0275209,54.7061658 23.7206706,55.0065321 C23.4138204,55.3068984 23.4068914,55.7986067 23.7051563,56.1075 C24.1453597,56.5570514 24.6038725,56.9883015 25.0795312,57.4001563 C25.2213094,57.5231711 25.4027625,57.5908137 25.5904687,57.5906254 C25.9167991,57.590775 26.2088451,57.3880785 26.322851,57.0823103 C26.4368568,56.776542 26.3488023,56.4321249 26.1020312,56.2185938 C25.658963,55.8349294 25.2318325,55.433237 24.8217187,55.0145313 L24.8217187,55.0145312 Z M20.57375,48.7389062 C20.4523711,48.4630303 20.3369278,48.1845808 20.2275,47.90375 C20.0708755,47.5016608 19.6179486,47.3026724 19.2158594,47.4592969 C18.8137702,47.6159214 18.6147817,48.0688483 18.7714062,48.4709375 C18.8890535,48.7724738 19.0130393,49.0714984 19.1432812,49.3678125 C19.3212157,49.755652 19.777379,49.9290342 20.168002,49.7572966 C20.558625,49.585559 20.7392472,49.1322138 20.57375,48.7389062 L20.57375,48.7389062 Z M60.528125,47.7492187 C60.3361615,47.6711624 60.121045,47.6726036 59.9301446,47.7532248 C59.7392441,47.8338461 59.5882144,47.9870363 59.5103125,48.1790625 C59.3969873,48.4582775 59.2776365,48.7350089 59.1523437,49.0090625 C58.9806423,49.4000481 59.1546109,49.8564604 59.542999,50.0339592 C59.9313871,50.211458 60.3903368,50.0442984 60.5735937,49.6585937 C60.7080889,49.3641187 60.836295,49.0668116 60.958125,48.766875 C61.1203676,48.367116 60.9278602,47.9115199 60.528125,47.7492188 L60.528125,47.7492187 Z M50.6267187,58.458125 C50.096267,58.7702003 49.5524701,59.0590158 48.996875,59.32375 C48.6074103,59.5093492 48.4421142,59.975508 48.6276563,60.365 C48.7166926,60.5521153 48.876446,60.6961724 49.0717407,60.7654515 C49.2670354,60.8347307 49.4818576,60.8235514 49.6689062,60.734375 C50.2655416,60.4499922 50.8495306,60.1398035 51.4192187,59.8046875 C51.7910526,59.5858378 51.9150815,59.1070008 51.69625,58.7351563 C51.591213,58.5565309 51.419489,58.4269752 51.2188899,58.3750157 C51.0182908,58.3230563 50.8052651,58.3529538 50.6267187,58.458125 L50.6267187,58.458125 Z M58.75375,51.4740625 C58.5798288,51.3614186 58.3682815,51.3224831 58.1656514,51.3658222 C57.9630213,51.4091613 57.7859089,51.5312245 57.6732812,51.7051563 C57.3385637,52.2218194 56.9815605,52.7236987 56.6032812,53.209375 C56.3422186,53.5499027 56.4046512,54.0372483 56.7431228,54.3009712 C57.0815944,54.5646941 57.5694142,54.5060822 57.8357812,54.1696875 C58.2419777,53.6481713 58.625359,53.1092793 58.9848437,52.5545313 C59.097571,52.3806338 59.1365552,52.1690605 59.0932107,51.9664055 C59.0498663,51.7637506 58.9277482,51.5866343 58.75375,51.4740625 L58.75375,51.4740625 Z M54.5429688,55.4920312 C54.0984795,55.9179044 53.6357543,56.3243269 53.1560937,56.7101562 C52.823897,56.9816632 52.7728046,57.4702591 53.0416463,57.8046164 C53.310488,58.1389738 53.7986597,58.1939718 54.1351563,57.9278125 C54.6501435,57.5135591 55.1469624,57.0772134 55.6242188,56.62 C55.9356987,56.3214211 55.9461571,55.8268706 55.6475781,55.5153906 C55.3489992,55.2039107 54.8544487,55.1934523 54.5429688,55.4920312 L54.5429688,55.4920312 Z M47.10625,60.956875 C46.9795107,60.5444999 46.5426638,60.312755 46.1301562,60.4390625 C45.842119,60.527444 45.5522077,60.6095985 45.260625,60.6854687 C44.9904987,60.7557496 44.7783861,60.9648024 44.7041879,61.2338791 C44.6299898,61.5029557 44.7049786,61.791177 44.9009067,61.9899728 C45.0968348,62.1887686 45.3839362,62.2679371 45.6540625,62.1976562 C45.9667187,62.11625 46.2810937,62.0273437 46.58875,61.9328125 C46.7867944,61.8720232 46.952578,61.7350492 47.0496286,61.5520243 C47.1466792,61.3689995 47.1670466,61.1549171 47.10625,60.956875 L47.10625,60.956875 Z" id="形状" fill="#282B71"></path>
                <polygon id="路径" fill="#FFE37B" points="56.53125 39.111875 64.1907813 39.111875 64.1907813 46.77125 56.53125 46.77125"></polygon>
                <polygon id="路径" fill="#F29B1D" points="66.0210938 36.9875 64.190625 39.111875 64.190625 46.77125 66.03125 43.9573437 66.03125 36.9875"></polygon>
                <polygon id="路径" fill="#F29B1D" points="58.3610938 36.9875 56.53125 39.111875 64.190625 39.111875 66.0210937 36.9875"></polygon>
                <polygon id="路径" fill="#8AC9F9" points="31.4082813 35.2510938 44.4953125 35.2510938 44.4953125 48.3379688 31.4082813 48.3379688"></polygon>
                <polygon id="路径" fill="#5D8EF9" points="47.6204688 31.621875 44.4953125 35.2510937 44.4953125 48.338125 47.6389063 43.53 47.6389063 31.621875"></polygon>
                <polygon id="路径" fill="#6DC5F2" points="34.5335938 31.621875 31.4082813 35.2510938 44.4953125 35.2510938 47.6204688 31.621875"></polygon>
                <path d="M22.6654687,40.539375 L31.4082812,40.539375 L31.4082812,42.101875 L22.6654687,42.101875 L22.6654687,40.539375 Z M38.6940625,23.6482813 L40.2565625,23.6482813 L40.2565625,31.6220312 L38.6940625,31.6220312 L38.6940625,23.6482813 Z M38.6940625,48.338125 L40.2565625,48.338125 L40.2565625,56.4551563 L38.6940625,56.4551563 L38.6940625,48.338125 Z M47.6389062,40.539375 L56.53125,40.539375 L56.53125,42.101875 L47.6389062,42.101875 L47.6389062,40.539375 Z" id="形状" fill="#282B71"></path>
                <polygon id="路径" fill="#FFE37B" points="34.7739063 15.98875 42.4334375 15.98875 42.4334375 23.6482812 34.7739063 23.6482812"></polygon>
                <polygon id="路径" fill="#F29B1D" points="44.26375 13.864375 42.4332813 15.98875 42.4332813 23.6482812 44.2739063 20.8342187 44.2739063 13.864375"></polygon>
                <polygon id="路径" fill="#F29B1D" points="36.60375 13.864375 34.7739063 15.98875 42.4332813 15.98875 44.26375 13.864375"></polygon>
                <polygon id="路径" fill="#FFE37B" points="34.7739063 58.579375 42.4334375 58.579375 42.4334375 66.2389062 34.7739063 66.2389062"></polygon>
                <polygon id="路径" fill="#F29B1D" points="44.26375 56.4551562 42.4332813 58.579375 42.4332813 66.2389062 44.2739063 63.425 44.2739063 56.4551562"></polygon>
                <polygon id="路径" fill="#F29B1D" points="36.60375 56.4551562 34.7739063 58.579375 42.4332813 58.579375 44.26375 56.4551562"></polygon>
                <polygon id="路径" fill="#FFE37B" points="13.1654688 39.111875 20.8248438 39.111875 20.8248438 46.77125 13.1654688 46.77125"></polygon>
                <polygon id="路径" fill="#F29B1D" points="22.6553125 36.9875 20.8246875 39.111875 20.8246875 46.77125 22.6654688 43.9573437 22.6654688 36.9875"></polygon>
                <polygon id="路径" fill="#F29B1D" points="14.9953125 36.9875 13.1654688 39.111875 20.8246875 39.111875 22.6553125 36.9875"></polygon>
                <path d="M58.7185938,19.1526562 C57.2156207,18.7756417 56.0421757,17.6019565 55.6654687,16.0989062 L55.600625,15.8417188 L55.5370312,16.0989062 C55.1597995,17.6021076 53.9859347,18.7757321 52.4826562,19.1526562 L52.2265625,19.216875 L52.4826562,19.2810937 C53.9860993,19.6578264 55.1600678,20.8316148 55.5370312,22.335 L55.600625,22.5914062 L55.6654687,22.335 C56.0419071,20.8317659 57.215456,19.6579167 58.7185937,19.2810937 L58.9757812,19.216875 L58.7185937,19.1526562 L58.7185938,19.1526562 Z M63.7564063,23.9665625 C62.8024484,23.7274266 62.0574073,22.9828659 61.8176563,22.0290625 L61.7770313,21.8665625 L61.7365625,22.0290625 C61.4972385,22.9829959 60.7521741,23.7277 59.798125,23.9665625 L59.63625,24.0070312 L59.798125,24.04875 C60.7523862,24.287238 61.4976129,25.0321043 61.7365625,25.98625 L61.7770313,26.14875 L61.8176562,25.98625 C62.0570959,25.0322699 62.802272,24.2875743 63.7564062,24.04875 L63.918125,24.0070312 L63.7564062,23.9665625 L63.7564063,23.9665625 Z" id="形状" fill="#282B71"></path>
                <path d="M30.7039062,64.145625 C29.3275616,63.8011715 28.2529727,62.7264024 27.90875,61.35 L27.84875,61.115625 L27.7896875,61.35 C27.4455553,62.7267901 26.3704415,63.8017236 24.9935938,64.145625 L24.7590625,64.2051563 L24.9935938,64.2640625 C26.3704536,64.6078434 27.4455988,65.6827483 27.7896875,67.0595313 L27.84875,67.2945313 L27.90875,67.0595313 C28.2527417,65.6830299 29.3274433,64.6082081 30.7039063,64.2640625 L30.9395313,64.2051563 L30.7039063,64.145625 L30.7039062,64.145625 Z" id="路径" fill="#FFE37B"></path>
                <path d="M30.765625,31.5778125 C29.7480114,31.3227994 28.9534506,30.5282386 28.6984375,29.510625 L28.655625,29.3375 L28.6114063,29.510625 C28.3568568,30.5284451 27.5621759,31.3231861 26.544375,31.5778125 L26.3710938,31.62125 L26.544375,31.6653125 C27.5621413,31.9197028 28.3568621,32.7143034 28.6114063,33.7320313 L28.655625,33.9057813 L28.6984375,33.7320313 C28.9534454,32.71451 29.748046,31.9200897 30.765625,31.6653125 L30.939375,31.62125 L30.765625,31.5778125 L30.765625,31.5778125 Z M34.67625,28.1070312 C34.0225878,27.9428563 33.512223,27.4324315 33.348125,26.77875 L33.3207812,26.6675 L33.2920312,26.77875 C33.1285523,27.4327261 32.6180001,27.9433985 31.9640625,28.1070312 L31.8528125,28.135 L31.9640625,28.1635937 C32.6177951,28.3270934 33.1283008,28.8374189 33.2920312,29.4910937 L33.3207812,29.6029687 L33.348125,29.4910937 C33.5124118,28.8376782 34.0227572,28.327573 34.67625,28.1635937 L34.7882812,28.135 L34.67625,28.1070312 L34.67625,28.1070312 Z" id="形状" fill="#5D8EF9"></path>
            </g>
        </g>
    </g>
</svg>