<?xml version="1.0" standalone="no"?><!DOCTYPE svg PUBLIC "-//W3C//DTD SVG 1.1//EN" "http://www.w3.org/Graphics/SVG/1.1/DTD/svg11.dtd"><svg t="1568001267699" class="icon" viewBox="0 0 1024 1024" version="1.1" xmlns="http://www.w3.org/2000/svg" p-id="11332" width="32" height="32" xmlns:xlink="http://www.w3.org/1999/xlink"><defs><style type="text/css"></style></defs><path d="M831.8 64.2H384.1c-70.7 0-127.9 57.3-127.9 127.9h575.7v575.7c70.6 0 127.9-57.3 127.9-127.9V192.2c0-70.7-57.3-128-128-128z" p-id="11333" fill="#515151"></path><path d="M639.9 256.1H192.2c-70.7 0-127.9 57.3-127.9 127.9v447.8c0 70.7 57.3 127.9 127.9 127.9H640c70.7 0 127.9-57.3 127.9-127.9V384.1c0-70.7-57.3-128-128-128z m0 575.7H192.2V384.1H640v447.7z" p-id="11334" fill="#515151"></path><path d="M352.1 767.9H480v-96h96V544h-96v-96H352.1v96h-96v127.9h96z" p-id="11335" fill="#515151"></path></svg>