<?xml version="1.0" encoding="UTF-8"?>
<svg width="80px" height="80px" viewBox="0 0 80 80" version="1.1" xmlns="http://www.w3.org/2000/svg" xmlns:xlink="http://www.w3.org/1999/xlink">
    <!-- Generator: Sketch 55.2 (78181) - https://sketchapp.com -->
    <title>icon3</title>
    <desc>Created with Sketch.</desc>
    <g id="页面1" stroke="none" stroke-width="1" fill="none" fill-rule="evenodd">
        <g id="首页" transform="translate(-400.000000, -975.000000)" fill-rule="nonzero">
            <g id="icon3" transform="translate(400.000000, 975.000000)">
                <path d="M39.8434375,6.23921875 C21.2851562,6.23921875 6.23921875,21.2846875 6.23921875,39.84375 C6.23921875,58.4028125 21.285,73.4485938 39.8434375,73.4485938 C58.4032813,73.4485938 73.44875,58.4028125 73.44875,39.84375 C73.44875,21.2846875 58.4032813,6.23921875 39.8434375,6.23921875 Z" id="路径" fill="#EDF3FC"></path>
                <path d="M68.0171875,11.6701562 C60.4915625,4.14453125 50.4859375,0 39.8434375,0 C29.2010938,0 19.195625,4.14453125 11.67,11.6701562 C4.144375,19.1957812 0,29.20125 0,39.84375 C0,50.4864063 4.14453125,60.4920312 11.67,68.0175 C19.195625,75.5429688 29.2009375,79.6875 39.8434375,79.6875 C50.4860938,79.6875 60.4915625,75.543125 68.0171875,68.0175 C75.5429688,60.4920312 79.6875,50.4864063 79.6875,39.84375 C79.6875,29.20125 75.5429688,19.1957812 68.0171875,11.6701562 Z M39.8434375,78.4109375 C18.5775,78.4109375 1.27671875,61.1096875 1.27671875,39.84375 C1.27671875,18.5778125 18.5775,1.2765625 39.8434375,1.2765625 C61.1096875,1.2765625 78.4107812,18.5776563 78.4107812,39.84375 C78.4107812,61.1098438 61.1096875,78.4109375 39.8434375,78.4109375 Z" id="形状" fill="#EDF3FC"></path>
                <path d="M44.8140625,22.8901563 C43.8053483,22.6370535 43.0177109,21.8494761 42.7645312,20.8407813 L42.7214062,20.6684375 L42.6785937,20.8407813 C42.4252941,21.8494641 41.6376277,22.6370104 40.6289062,22.8901563 L40.4565625,22.9335938 L40.6289062,22.9767188 C41.6377513,23.2296466 42.425512,24.0172873 42.6785937,25.0260938 L42.7214062,25.1984375 L42.7645312,25.0260938 C43.0175863,24.0173283 43.8052777,23.2296969 44.8140625,22.9767188 L44.9867187,22.9335938 L44.8140625,22.8901563 L44.8140625,22.8901563 Z" id="路径" fill="#330D84"></path>
                <path d="M16.4615625,40.6779687 C14.8479332,40.2733531 13.5879738,39.0134537 13.1832812,37.3998437 L13.1142187,37.124375 L13.045625,37.3998437 C12.6406877,39.0133711 11.3807535,40.2731853 9.7671875,40.6779688 L9.49140625,40.7471875 L9.7671875,40.81625 C11.380906,41.2209622 12.6409128,42.480969 13.045625,44.0946875 L13.1142188,44.3695313 L13.1832813,44.0946875 C13.5877487,42.4808864 14.8477807,41.2207943 16.4615625,40.81625 L16.7373438,40.7471875 L16.4615625,40.6779688 L16.4615625,40.6779687 Z M33.183125,65.1226563 C31.5695061,64.7179662 30.3095314,63.4581116 29.9046875,61.8445312 L29.8357813,61.5690625 L29.7670313,61.8445312 C29.3620272,63.4579647 28.1022028,64.7177291 26.48875,65.1226563 L26.2129688,65.1917188 L26.48875,65.2607813 C28.1024019,65.6657528 29.3622904,66.9258215 29.7670313,68.5395312 L29.8357813,68.8145313 L29.9046875,68.5395312 C30.3093304,66.9257099 31.5693423,65.665578 33.183125,65.2607813 L33.4590625,65.1917188 L33.183125,65.1226563 L33.183125,65.1226563 Z" id="形状" fill="#FFE37B"></path>
                <path d="M67.5926562,28.5240625 C66.3778237,28.2201845 65.4291857,27.2717868 65.125,26.0570313 L65.073125,25.8496875 L65.0207812,26.0570313 C64.7167112,27.2717401 63.7681849,28.2201463 62.5534375,28.5240625 L62.3465625,28.5760938 L62.5534375,28.6278125 C63.7683489,28.9318351 64.7169125,29.8805189 65.0207812,31.0954688 L65.073125,31.3021875 L65.125,31.0954688 C65.428922,29.8804368 66.3776243,28.9317345 67.5926562,28.6278125 L67.799375,28.5760938 L67.5926562,28.5240625 L67.5926562,28.5240625 Z M59.6315625,19.603125 C57.5168098,19.073242 55.8655032,17.4221756 55.3353125,15.3075 L55.2454687,14.946875 L55.1540625,15.3075 C54.624517,17.4220365 52.9736589,19.0731949 50.8592187,19.603125 L50.4989062,19.6939062 L50.8592187,19.784375 C52.9739306,20.3136276 54.6250407,21.9649179 55.1540625,24.0796875 L55.2454687,24.4403125 L55.3353125,24.0796875 C55.8650735,21.9648319 57.5165913,20.3136744 59.6315625,19.784375 L59.9925,19.6939062 L59.6315625,19.603125 L59.6315625,19.603125 Z" id="形状" fill="#8AC9F9"></path>
                <path d="M56.3051562,26.9109375 L22.0128125,26.9109375 C19.8421875,26.9109375 18.0821875,28.670625 18.0821875,30.8403125 L18.0821875,55.4946875 C18.0821875,57.6654687 19.8420313,59.425 22.0128125,59.425 L56.3051562,59.425 C58.475625,59.425 60.2348437,57.6654687 60.2348437,55.4946875 L60.2348437,30.8403125 C60.2348437,28.670625 58.475625,26.9109375 56.3051562,26.9109375 Z" id="路径" fill="#282B71"></path>
                <path d="M44.9276562,30.2904687 C44.9276562,30.9376774 45.4523226,31.4623437 46.0995312,31.4623437 C46.7467399,31.4623437 47.2714062,30.9376774 47.2714062,30.2904687 C47.2714062,29.6432601 46.7467399,29.1185937 46.0995312,29.1185937 C45.4523226,29.1185937 44.9276562,29.6432601 44.9276562,30.2904687 Z" id="路径" fill="#FFFFFF"></path>
                <path d="M50.8564062,29.1185937 C50.5455786,29.1185523 50.2474675,29.2419991 50.0276645,29.4617727 C49.8078615,29.6815464 49.684375,29.9796411 49.684375,30.2904688 C49.684375,30.9376571 50.2090096,31.462315 50.8561979,31.4623437 C51.5033863,31.4623725 52.0280675,30.9377613 52.028125,30.2905729 C52.0281825,29.6433846 51.5035946,29.11868 50.8564062,29.1185937 Z" id="路径" fill="#FFFFFF"></path>
                <path d="M54.4410938,30.2904687 C54.4410938,30.9376774 54.9657601,31.4623437 55.6129688,31.4623437 C56.2601774,31.4623437 56.7848438,30.9376774 56.7848438,30.2904687 C56.7848438,29.6432601 56.2601774,29.1185937 55.6129688,29.1185937 C54.9657601,29.1185937 54.4410938,29.6432601 54.4410938,30.2904687 Z" id="路径" fill="#FFFFFF"></path>
                <path d="M18.0821875,33.8870312 L18.0821875,55.4948438 C18.0821875,57.665625 19.8420313,59.4251563 22.0128125,59.4251563 L56.3051562,59.4251563 C58.475625,59.4251563 60.2348437,57.665625 60.2348437,55.4948438 L60.2348437,33.8870312 L18.0821875,33.8870312 Z" id="路径" fill="#A293FE"></path>
                <path d="M27.3446875,40.93875 C23.5526563,40.93875 20.47875,44.0128125 20.47875,47.805 C20.47875,51.5967188 23.5528125,54.670625 27.3446875,54.670625 C31.136875,54.670625 34.2115625,51.5965625 34.2115625,47.805 C34.2115625,44.0126562 31.136875,40.93875 27.3446875,40.93875 Z" id="路径" fill="#FFBE1B"></path>
                <path d="M27.3446875,42.650625 C24.4985938,42.650625 22.1903125,44.9576563 22.1903125,47.8048438 C22.1903125,50.6509375 24.4985938,52.9585938 27.3446875,52.9585938 C30.1914062,52.9585938 32.4989063,50.6510938 32.4989063,47.8048438 C32.4990625,44.9576563 30.1915625,42.650625 27.3446875,42.650625 Z" id="路径" fill="#FFE37B"></path>
                <path d="M29.4232813,48.12625 C29.2396875,47.914375 28.9928125,47.7745313 28.6828125,47.7079687 C28.7682813,47.6698437 28.8279688,47.6425 28.8617188,47.6259375 C28.895,47.6092187 28.9548438,47.5676562 29.0403125,47.4996875 C29.2932813,47.309375 29.419375,47.0182813 29.419375,46.6273437 C29.419375,46.3029687 29.3078125,46.0126562 29.0834375,45.755 C28.9595313,45.6164062 28.775,45.506875 28.5289063,45.4253125 C28.4521588,45.4009789 28.3741869,45.3806906 28.2953125,45.3645312 L28.2953125,44.7284375 L27.4175,44.7284375 L27.4175,45.304375 L26.8295313,45.304375 L26.8295313,44.7284375 L25.951875,44.7284375 L25.951875,45.304375 L24.9917188,45.304375 L24.9917188,46.2475 L25.7064063,46.2475 L25.7064063,49.3601562 L24.9917188,49.3601562 L24.9917188,50.3051562 L25.951875,50.3051562 L25.951875,50.88 L26.8295313,50.88 L26.8295313,50.3051562 L27.4175,50.3051562 L27.4175,50.88 L28.2953125,50.88 L28.2953125,50.283125 C28.7721875,50.2314062 29.121875,50.085 29.3410938,49.8392187 C29.579375,49.5726562 29.6985938,49.265625 29.6985938,48.916875 C29.6984375,48.6017187 29.6065625,48.3392187 29.4232813,48.12625 L29.4232813,48.12625 Z M26.8228125,46.2476562 L27.3585938,46.2476562 C27.6882813,46.2476562 27.9217188,46.2845312 28.0601563,46.3553125 C28.1984375,46.4273437 28.2675,46.5742188 28.2675,46.795625 C28.2675,47.0176562 28.1928125,47.1621875 28.0423438,47.2282812 C27.891875,47.295 27.6620313,47.3289062 27.351875,47.3289062 L26.8228125,47.3289062 L26.8228125,46.2476562 Z M28.306875,49.2420312 C28.1475,49.3210937 27.9076563,49.3604687 27.5878125,49.3604687 L26.8228125,49.3604687 L26.8228125,48.2090625 L27.480625,48.2090625 C27.8528125,48.2090625 28.1232813,48.2453125 28.2925,48.3196875 C28.4620313,48.3934375 28.5462502,48.5457812 28.5462502,48.7771875 C28.5464063,49.008125 28.4667188,49.1634375 28.306875,49.2420312 Z" id="形状" fill="#FFFFFF"></path>
                <path d="M52.4067188,41.78125 L52.4067188,54.7664063 L55.674375,55.0710938 L55.674375,41.78125 L52.4067188,41.78125 Z M47.1285938,45.1325 L50.3964062,45.1325 L50.3964062,54.7664063 L47.1285938,54.7664063 L47.1285938,45.1325 Z M41.850625,48.1792188 L45.1182813,48.1792188 L45.1182813,54.7664063 L41.850625,54.7664063 L41.850625,48.1792188 Z M36.5723438,51.2257813 L39.8401562,51.2257813 L39.8401562,54.7664063 L36.5723438,54.7664063 L36.5723438,51.2257813 Z" id="形状" fill="#8AC9F9"></path>
                <path d="M54.7796875,36.0710937 C54.63125,35.9084375 54.414375,35.8140625 54.2009375,35.8163636 L50.775625,35.8235937 C50.3441526,35.8240252 49.9947248,36.1741526 49.9951563,36.605625 C49.9955878,37.0370974 50.3457151,37.3865252 50.7771875,37.3860937 L50.77875,37.3860937 L52.2595312,37.3829687 L44.4014062,42.8232812 L43.2020312,41.6782812 C42.937201,41.4255456 42.5324102,41.3905412 42.228125,41.5940625 L35.8439062,45.8653125 C35.6103648,46.0198739 35.4774196,46.2876177 35.4954454,46.5670921 C35.5134712,46.8465664 35.6797102,47.0950132 35.9311721,47.2182923 C36.182634,47.3415715 36.4808464,47.3208221 36.7128125,47.1639063 L42.57625,43.2409375 L43.7829687,44.3929688 C44.0511604,44.6489881 44.4623635,44.6812368 44.7671875,44.4701563 L53.2284375,38.6121875 L53.1214062,39.7510938 C53.0934724,40.0299652 53.2170592,40.3024331 53.4452759,40.4651189 C53.6734927,40.6278048 53.9713683,40.6557793 54.2258842,40.5384284 C54.4804001,40.4210775 54.6525552,40.1763837 54.6770312,39.8971875 L54.9801562,36.6703125 C55.0008891,36.4512328 54.9280778,36.2335933 54.7796875,36.0710937 L54.7796875,36.0710937 Z" id="路径" fill="#FFFFFF"></path>
            </g>
        </g>
    </g>
</svg>