<?xml version="1.0" encoding="UTF-8"?>
<svg width="40px" height="40px" viewBox="0 0 40 40" version="1.1" xmlns="http://www.w3.org/2000/svg" xmlns:xlink="http://www.w3.org/1999/xlink">
    <!-- Generator: Sketch 55.2 (78181) - https://sketchapp.com -->
    <title>ardor</title>
    <desc>Created with Sketch.</desc>
    <g id="页面1" stroke="none" stroke-width="1" fill="none" fill-rule="evenodd">
        <g id="侧边栏" transform="translate(-60.000000, -768.000000)" fill-rule="nonzero">
            <g id="ardor" transform="translate(60.000000, 768.000000)">
                <path d="M19.9221875,3.11945312 C10.6424219,3.11945312 3.11984375,10.6423437 3.11984375,19.9220312 C3.11984375,29.2014062 10.6424219,36.7241406 19.9221875,36.7241406 C29.2013281,36.7241406 36.7242187,29.2014062 36.7242187,19.9220312 C36.7242187,10.6423437 29.2013281,3.11945312 19.9221875,3.11945312 Z" id="路径" fill="#EDF3FC"></path>
                <path d="M19.9221875,0 C8.93703125,0 0,8.93695313 0,19.9220313 C0,30.9069531 8.93703125,39.84375 19.9221875,39.84375 C30.9071094,39.84375 39.84375,30.9069531 39.84375,19.9220313 C39.84375,8.93695313 30.9071094,0 19.9221875,0 Z M19.9221875,39.2055469 C9.28898438,39.2055469 0.638515625,30.555 0.638515625,19.9220313 C0.638515625,9.28890625 9.2890625,0.638203125 19.9221875,0.638203125 C30.5551563,0.638203125 39.2053125,9.28890625 39.2053125,19.9220313 C39.2053125,30.555 30.5550781,39.2055469 19.9221875,39.2055469 Z" id="形状" fill="#EDF3FC"></path>
                <path d="M19.9214062,8.20328125 C13.4498437,8.20328125 8.203125,13.4495313 8.203125,19.9221094 C8.203125,26.3941406 13.4498438,31.6404688 19.9214062,31.6404688 C26.3939062,31.6404688 31.640625,26.3941406 31.640625,19.9221094 C31.640625,13.4495313 26.3939062,8.20328125 19.9214062,8.20328125 Z" id="路径" fill="#5D8EF9"></path>
                <path d="M19.9216406,11.1254687 C15.0636719,11.1254687 11.1253906,15.0634375 11.1253906,19.921875 C11.1253906,24.7798437 15.06375,28.7182812 19.9216406,28.7182812 C24.7800781,28.7182812 28.7184375,24.7798437 28.7184375,19.921875 C28.7184375,15.0635156 24.7800781,11.1254687 19.9216406,11.1254687 Z" id="路径" fill="#8AC9F9"></path>
                <g id="导入" transform="translate(15.000000, 14.000000)">
                    <rect id="矩形" fill="#000000" opacity="0" x="0" y="1" width="10" height="10"></rect>
                    <path d="M5.41666667,0.41666667 L5.41666667,6.66666667 C5.41666667,6.89583334 5.22916667,7.08333333 5,7.08333333 C4.77083333,7.08333333 4.58333334,6.89583333 4.58333334,6.66666667 L4.58333334,0.41666667 C4.58333334,0.1875 4.77083334,0 5,0 C5.22916666,0 5.41666667,0.1875 5.41666667,0.41666667 M7.78966667,4.46558333 L5.29341667,6.96191667 C5.1304623,7.12398045 4.86720437,7.12398045 4.70425,6.96191667 C4.54216667,6.79975 4.54216667,6.53441667 4.70425,6.37275 L7.2005,3.87641667 C7.36345437,3.71435289 7.6267123,3.71435289 7.78966667,3.87641667 C7.95173045,4.03937104 7.95173045,4.30262896 7.78966667,4.46558333 M4.70525,6.96175 L2.209,4.46558333 C2.04693622,4.30262896 2.04693622,4.03937104 2.209,3.87641667 C2.37108333,3.71425 2.6365,3.71425 2.79816667,3.87641667 L5.29441667,6.37266667 C5.45648045,6.53562104 5.45648045,6.79887896 5.29441667,6.96183333 C5.1314623,7.12389711 4.86820437,7.12389711 4.70525,6.96183333 M8.75,10 L1.25,10 C0.56083333,10 0,9.43916667 0,8.75 L0,6.25 C0,6.01958333 0.18625,5.83333333 0.41666667,5.83333333 C0.64708334,5.83333333 0.83333334,6.01958333 0.83333334,6.25 L0.83333334,8.75 C0.83333334,8.98 1.02000001,9.16666667 1.25,9.16666667 L8.75,9.16666667 C8.98,9.16666667 9.16666667,8.98 9.16666667,8.75 L9.16666667,6.25 C9.16666667,6.01958333 9.35291667,5.83333333 9.58333334,5.83333333 C9.81375001,5.83333333 10,6.01958333 10,6.25 L10,8.75 C10,9.43916667 9.43916667,10 8.75,10" id="形状" fill="#FFFFFF"></path>
                </g>
                <path d="M30.2625781,9.0065625 C29.4097367,8.79267597 28.7438072,8.1268065 28.5298437,7.27398438 L28.4936719,7.12851563 L28.4571875,7.27398438 C28.2435739,8.12708886 27.5773714,8.79314125 26.7242187,9.0065625 L26.5794531,9.043125 L26.7242187,9.07984375 C27.5773396,9.29307351 28.2435731,9.95900663 28.4571875,10.8120313 L28.4936719,10.9574219 L28.5298437,10.8120313 C28.7437614,9.95926262 29.409742,9.29349223 30.2625781,9.07984375 L30.4082031,9.043125 L30.2625781,9.0065625 Z M10.9796875,28.6820313 C10.1268196,28.4681915 9.46086983,27.8023017 9.24695312,26.9494531 L9.21078125,26.8039844 L9.17429687,26.9494531 C8.96071453,27.8025753 8.29449842,28.4686412 7.44132812,28.6820313 L7.29648437,28.7185938 L7.44132812,28.7553125 C8.29444898,28.9685423 8.96068245,29.6344754 9.17429687,30.4875 L9.21078125,30.6328906 L9.24695312,30.4875 C9.46088639,29.6347402 10.1268602,28.9689766 10.9796875,28.7553125 L11.1253125,28.7185938 L10.9796875,28.6820313 L10.9796875,28.6820313 Z M26.6507031,7.68523438 C26.0571745,7.5363862 25.5937304,7.07297207 25.4448437,6.47945313 L25.4196094,6.37820313 L25.3942969,6.47945313 C25.2456152,7.07311623 24.7820417,7.53662961 24.1883594,7.68523438 L24.0875781,7.71070313 L24.1883594,7.73625 C24.7820775,7.88464305 25.2457115,8.34812685 25.3942969,8.94179688 L25.4196094,9.04296875 L25.4448437,8.94179688 C25.5936811,8.34829766 26.0571654,7.88493353 26.6507031,7.73625 L26.7521094,7.71070313 L26.6507031,7.68523438 L26.6507031,7.68523438 Z" id="形状" fill="#5D8EF9"></path>
            </g>
        </g>
    </g>
</svg>