<svg t="1569482981537" class="icon" viewBox="0 0 1024 1024" version="1.1" xmlns="http://www.w3.org/2000/svg" p-id="20949" width="48" height="48"><path d="M512 192C306.154667 192 138.666667 359.488 138.666667 565.333333S306.154667 938.666667 512 938.666667s373.333333-167.488 373.333333-373.333334S717.845333 192 512 192z m0 682.666667c-170.56 0-309.333333-138.773333-309.333333-309.333334S341.44 256 512 256s309.333333 138.773333 309.333333 309.333333S682.56 874.666667 512 874.666667zM928.234667 282.432a447.658667 447.658667 0 0 0-193.173334-182.656 32 32 0 1 0-28.202666 57.472 383.786667 383.786667 0 0 1 165.653333 156.650667 32 32 0 1 0 55.722667-31.466667zM151.488 313.877333a383.786667 383.786667 0 0 1 165.653333-156.650666 32.021333 32.021333 0 0 0-28.202666-57.472 447.424 447.424 0 0 0-193.173334 182.656 32 32 0 1 0 55.722667 31.466666z" p-id="20950" fill="#ffffff"></path><path d="M597.888 463.104l-108.864 124.416-68.245333-54.613333a32.021333 32.021333 0 0 0-39.978667 49.962666l92.16 73.728a31.936 31.936 0 0 0 44.074667-3.904l129.024-147.456a32.021333 32.021333 0 0 0-3.008-45.162666 31.978667 31.978667 0 0 0-45.162667 3.029333z" p-id="20951" fill="#ffffff"></path></svg>