<svg t="1569484088874" class="icon" viewBox="0 0 1024 1024" version="1.1" xmlns="http://www.w3.org/2000/svg" p-id="33777" width="48" height="48"><path d="M863.9232 102.336l-0.2176 0.128h0.2176v-0.128z m-127.8464 563.328a127.5648 127.5648 0 0 0-94.144 41.4848L404.1344 565.7728a127.104 127.104 0 0 0 11.9424-53.7088 127.5264 127.5264 0 0 0-12.0448-53.9648l237.7216-141.3376a127.488 127.488 0 0 0 94.3232 41.6896c70.6816 0 128-57.3056 128-128s-57.3184-128-128-128-128 57.3056-128 128c0 6.7328 0.6784 13.2992 1.6768 19.7376l-258.688 150.5024a127.296 127.296 0 0 0-62.9888-16.64c-70.6176 0-127.8464 57.1648-127.9872 127.744l-0.1664 0.0896 0.1536 0.1152v0.064c0 70.6816 57.3056 128 128 128a127.168 127.168 0 0 0 63.2448-16.8064L609.792 773.632a127.6544 127.6544 0 0 0-1.728 20.032c0 70.6816 57.3184 128 128 128s128-57.3184 128-128-57.3056-128-127.9872-128z" p-id="33778" fill="#30cfd0"></path></svg>