<?xml version="1.0" encoding="UTF-8"?>
<svg width="40px" height="40px" viewBox="0 0 40 40" version="1.1" xmlns="http://www.w3.org/2000/svg" xmlns:xlink="http://www.w3.org/1999/xlink">
    <!-- Generator: Sketch 55.2 (78181) - https://sketchapp.com -->
    <title>decentralized-02 (1)</title>
    <desc>Created with Sketch.</desc>
    <g id="页面1" stroke="none" stroke-width="1" fill="none" fill-rule="evenodd">
        <g id="侧边栏" transform="translate(-60.000000, -863.000000)" fill-rule="nonzero">
            <g id="decentralized-02-(1)" transform="translate(60.000000, 863.000000)">
                <path d="M19.9217188,3.11992187 C10.6425781,3.11992187 3.11953125,10.6427344 3.11953125,19.921875 C3.11953125,29.2016406 10.6425781,36.7241406 19.9217188,36.7241406 C29.2016406,36.7241406 36.7244531,29.2016406 36.7244531,19.921875 C36.7244531,10.6427344 29.2016406,3.11992187 19.9217188,3.11992187 Z" id="路径" fill="#EDF3FC"></path>
                <path d="M19.9217187,0 C8.93679688,0 0,8.93703125 0,19.921875 C0,30.9067187 8.93679688,39.84375 19.9217187,39.84375 C30.9067969,39.84375 39.84375,30.9067187 39.84375,19.921875 C39.84375,8.93703125 30.9067969,0 19.9217187,0 Z M19.9217188,39.2052344 C9.28875,39.2052344 0.638203125,30.5548438 0.638203125,19.921875 C0.638203125,9.28890625 9.28875,0.638515625 19.9217188,0.638515625 C30.5548438,0.638515625 39.2055469,9.28898438 39.2055469,19.921875 C39.2055469,30.5547656 30.5548438,39.2052344 19.9217188,39.2052344 Z" id="形状" fill="#EDF3FC"></path>
                <path d="M30.8760156,23.4594531 C30.0691355,23.2572327 29.4390942,22.6272514 29.2367969,21.8203906 L29.2023438,21.6825 L29.1679688,21.8203906 C28.965529,22.6271427 28.3355898,23.2570518 27.5288281,23.4594531 L27.3908594,23.4942188 L27.5288281,23.5286719 C28.3356078,23.730893 28.9655938,24.3607589 29.1679688,25.1675 L29.2023438,25.3054688 L29.2367969,25.1675 C29.4391384,24.3607119 30.0691793,23.7308211 30.8760156,23.5286719 L31.0139063,23.4942188 L30.8760156,23.4594531 L30.8760156,23.4594531 Z" id="路径" fill="#330D84"></path>
                <path d="M23.0966406,6.87335937 C22.2223127,6.65467821 21.5395766,5.97209231 21.3207031,5.0978125 L21.2833594,4.94875 L21.2457031,5.0978125 C21.0268406,5.97204246 20.3441807,6.65461228 19.4699219,6.87335937 L19.3210937,6.91101562 L19.4699219,6.9478125 C20.3442382,7.16700255 21.0268208,7.84982535 21.2457031,8.72421875 L21.2833594,8.87273437 L21.3207031,8.72421875 C21.5395497,7.84974903 22.2222287,7.16688988 23.0966406,6.9478125 L23.2454687,6.91101563 L23.0966406,6.87335938 L23.0966406,6.87335937 Z" id="路径" fill="#FFBE1B"></path>
                <path d="M13.0809375,25.2551563 C11.9047642,24.9609641 10.9862547,24.0428449 10.6915625,22.8667969 L10.6415625,22.66625 L10.5907031,22.8667969 C10.2962892,24.0427782 9.37798262,24.9609346 8.20195313,25.2551563 L8.00171875,25.3059375 L8.20195313,25.3552344 C9.37820085,25.6501102 10.2964427,26.5688325 10.5907031,27.7452344 L10.6415625,27.945 L10.6915625,27.7452344 C10.9860855,26.568757 11.9045372,25.6500651 13.0809375,25.3552344 L13.2810156,25.3059375 L13.0809375,25.2551563 L13.0809375,25.2551563 Z" id="路径" fill="#5D8EF9"></path>
                <path d="M34.9300781,21.2391406 C33.9707106,20.9986774 33.2215942,20.2496511 32.9810156,19.2903125 L32.9403125,19.1267188 L32.8988281,19.2903125 C32.658561,20.2496313 31.9095928,20.9987197 30.9503125,21.2391406 L30.786875,21.2801562 L30.9503125,21.3211719 C31.9097314,21.5612986 32.6588168,22.3104741 32.8988281,23.2699219 L32.9403125,23.4335938 L32.9810156,23.2699219 C33.2213231,22.3104456 33.9705633,21.5613255 34.9300781,21.3211719 L35.0939062,21.2801562 L34.9300781,21.2391406 L34.9300781,21.2391406 Z M12.06625,16.46875 L10.5821094,16.5035938 C10.6532031,16.7585156 10.6585938,17.0272656 10.5997656,17.2846875 L12.060625,17.2503906 C12.0277256,16.9907533 12.0296173,16.7278869 12.06625,16.46875 L12.06625,16.46875 Z M14.5871875,12.4985156 L14.5523437,13.9826563 C14.8114539,13.9460371 15.0742892,13.9441192 15.3339062,13.9769531 L15.3682031,12.5163281 C15.1104388,12.5754776 14.8419872,12.5693551 14.5871875,12.4985156 Z M21.98875,16.3970313 L17.855,16.3970313 C17.8982031,16.6553125 17.9071875,16.9182031 17.8810156,17.1782812 L21.9627344,17.1782812 C21.9366887,16.9178643 21.9454375,16.6551386 21.98875,16.3970313 Z M25.2564844,12.4985156 C25.0015625,12.5696094 24.7328125,12.5750781 24.4754687,12.5163281 L24.5097656,13.9769531 C24.7693849,13.9441582 25.032215,13.9460761 25.2913281,13.9826563 L25.2564844,12.4985156 L25.2564844,12.4985156 Z M29.2616406,16.5035938 L27.7775,16.4686719 C27.8142969,16.7278125 27.8157813,16.9908594 27.783125,17.2503906 L29.2439844,17.2846875 C29.1847839,17.0269098 29.1908527,16.7584331 29.2616406,16.5035938 L29.2616406,16.5035938 Z M23.2114844,19.2922656 L21.4996094,22.2573437 C21.7236122,22.4007426 21.9271558,22.573827 22.1046875,22.771875 L23.908125,19.6482813 C23.6609353,19.5615303 23.4266016,19.4417749 23.2114844,19.2922656 L23.2114844,19.2922656 Z M16.6310937,19.2930469 C16.4159021,19.4424454 16.1815179,19.5620947 15.9342969,19.64875 L17.7380469,22.7728906 C17.9154872,22.5747501 18.1189519,22.4015607 18.3428906,22.2580469 L16.6310937,19.2930469 L16.6310937,19.2930469 Z M17.6071875,26.5203125 L16.55,27.5289844 C16.7740941,27.6694162 16.9596167,27.8635316 17.0897656,28.09375 L18.1638281,27.0690625 C17.9547475,26.9116631 17.7675557,26.7271248 17.6071875,26.5203125 L17.6071875,26.5203125 Z M22.2364844,26.5203125 C22.0761561,26.7271375 21.8889589,26.9116548 21.6798437,27.0689844 L22.7538281,28.0935937 C22.8840495,27.8634037 23.0695891,27.6692987 23.2936719,27.5288281 L22.2364844,26.5203125 Z" id="形状" fill="#8AC9F9"></path>
                <path d="M24.1339844,27.2860937 C23.2588281,27.2860937 22.5496094,27.9953906 22.5496094,28.8705469 C22.5496094,29.7457031 23.2588281,30.4546875 24.1339844,30.4546875 C25.0090625,30.4546875 25.7183594,29.7457031 25.7183594,28.8705469 C25.7183594,27.9953906 25.0090625,27.2860937 24.1339844,27.2860937 L24.1339844,27.2860937 Z M15.7096875,27.2860937 C14.8346094,27.2860937 14.1253125,27.9953906 14.1253125,28.8705469 C14.1253125,29.7457031 14.8346094,30.4546875 15.7096875,30.4546875 C16.5848438,30.4546875 17.2940625,29.7457031 17.2940625,28.8705469 C17.2940625,27.9953906 16.5848438,27.2860937 15.7096875,27.2860937 Z" id="形状" fill="#FFBE1B"></path>
                <path d="M19.921875,21.7957031 C18.3036719,21.7957031 16.9921875,23.1072656 16.9921875,24.7253125 C16.9921875,26.3436719 18.3036719,27.6547656 19.921875,27.6547656 C21.5399219,27.6547656 22.8515625,26.3436719 22.8515625,24.7253125 C22.8515625,23.1072656 21.5399219,21.7957031 19.921875,21.7957031 Z" id="路径" fill="#A293FE"></path>
                <path d="M16.1342188,9.853125 C15.5153125,9.23421875 14.5124219,9.23445313 13.8935937,9.85320313 C13.2747656,10.4721875 13.2746094,11.4749219 13.8935156,12.0938281 C14.5122656,12.7125781 15.5153125,12.7126563 16.1342188,12.0938281 C16.7529688,11.475 16.7529688,10.471875 16.1342188,9.853125 L16.1342188,9.853125 Z M10.1773438,15.8099219 C9.5584375,15.1910156 8.55554688,15.1911719 7.93671875,15.81 C7.31796875,16.4288281 7.31773438,17.4317969 7.93664063,18.050625 C8.55539063,18.669375 9.55851563,18.669375 10.1773438,18.050625 C10.7960938,17.4317969 10.7960156,16.4286719 10.1773438,15.8099219 Z" id="形状" fill="#FFBE1B"></path>
                <path d="M17.0380469,14.8114063 C15.89375,13.6670313 14.0392187,13.6673438 12.8950781,14.8115625 C11.7509375,15.9557031 11.750625,17.8101563 12.8949219,18.954375 C14.0391406,20.0985156 15.8938281,20.0985937 17.038125,18.954375 C18.1821094,17.8103125 18.1822656,15.9554688 17.0380469,14.8114063 L17.0380469,14.8114063 Z" id="路径" fill="#A293FE"></path>
                <path d="M25.9500781,9.85320313 C25.3313281,9.23445313 24.3284375,9.23421875 23.7095312,9.853125 C23.0907031,10.471875 23.0907031,11.475 23.7095312,12.0938281 C24.3283594,12.7126563 25.3314062,12.7125781 25.9502344,12.0938281 C26.5691406,11.4749219 26.5689844,10.4721875 25.9500781,9.85320313 L25.9500781,9.85320313 Z M31.9069531,15.81 C31.288125,15.1911719 30.2853125,15.1910156 29.6664062,15.8099219 C29.0475781,16.4286719 29.0475781,17.4317969 29.6664062,18.050625 C30.2851562,18.669375 31.2882812,18.669375 31.9071094,18.050625 C32.5260156,17.4317969 32.5257812,16.4288281 31.9069531,15.81 Z" id="形状" fill="#FFBE1B"></path>
                <path d="M26.9486719,14.8115625 C25.8044531,13.6673438 23.95,13.6670313 22.8057031,14.8114063 C21.6614844,15.9554688 21.6615625,17.8103125 22.8057031,18.954375 C23.9499219,20.0985938 25.8046094,20.0985156 26.9488281,18.954375 C28.093125,17.8101562 28.0928906,15.955625 26.9486719,14.8115625 Z" id="路径" fill="#A293FE"></path>
            </g>
        </g>
    </g>
</svg>