<svg t="1569482847614" class="icon" viewBox="0 0 1024 1024" version="1.1" xmlns="http://www.w3.org/2000/svg" p-id="16007" width="48" height="48"><path d="M512 51.2c253.672727 0 460.8 207.127273 460.8 460.8S765.672727 972.8 512 972.8 51.2 765.672727 51.2 512 258.327273 51.2 512 51.2m0-46.545455C232.727273 4.654545 4.654545 232.727273 4.654545 512S232.727273 1019.345455 512 1019.345455 1019.345455 791.272727 1019.345455 512 791.272727 4.654545 512 4.654545z" p-id="16008" fill="#ffffff"></path><path d="M768 532.945455v2.327272c0 18.618182-13.963636 32.581818-32.581818 32.581818H290.909091c-18.618182 0-32.581818-13.963636-32.581818-32.581818v-2.327272c0-18.618182 13.963636-32.581818 32.581818-32.581819h444.509091c18.618182-2.327273 32.581818 13.963636 32.581818 32.581819z" p-id="16009" fill="#ffffff"></path></svg>