<svg t="1569482733737" class="icon" viewBox="0 0 1024 1024" version="1.1" xmlns="http://www.w3.org/2000/svg" p-id="15073" width="48" height="48"><path d="M522.661888 43.882496c-5.834752 0-11.614208 0.231424-17.39776 0.44032v210.405376h49.815552V87.865344c221.822976 16.637952 397.268992 202.323968 397.268992 428.335104 0 236.935168-192.75776 429.707264-429.688832 429.707264-236.929024 0-429.686784-192.772096-429.686784-429.707264 0-122.488832 51.607552-233.084928 134.117376-311.42912L200.5504 171.206656C108.224512 257.47456 50.343936 380.172288 50.343936 516.200448c0 260.44416 211.881984 472.32 472.32 472.32s472.313856-211.87584 472.313856-472.32c-0.002048-260.435968-211.877888-472.317952-472.315904-472.317952z" p-id="15074" fill="#ffffff"></path><path d="M575.834112 483.866624l0.131072-0.114688-3.719168-2.844672c-0.858112-0.64512-1.640448-1.357824-2.53952-1.9456l-249.11872-190.570496-0.018432 0.016384c-2.691072-2.766848-6.42048-4.509696-10.590208-4.509696a14.81728 14.81728 0 0 0-14.819328 14.819328c0 3.848192 1.55648 7.276544 3.960832 9.91232l-0.022528 0.022528 0.219136 0.27648c0.1024 0.098304 0.16384 0.219136 0.260096 0.319488l196.66944 245.078016 0.034816-0.028672c9.691136 13.912064 25.737216 23.06048 43.982848 23.06048 29.618176 0 53.630976-24.008704 53.630976-53.630976-0.004096-15.906816-7.063552-30.03392-18.061312-39.860224z" p-id="15075" fill="#ffffff"></path></svg>